<svg width="81" height="144" viewBox="0 0 81 144" fill="none" xmlns="http://www.w3.org/2000/svg">
<path fill-rule="evenodd" clip-rule="evenodd" d="M66.1405 72.0538C75.1626 64.6336 80.9164 53.3841 80.9164 40.7907C80.9164 18.4463 62.8026 0.33252 40.4582 0.33252C18.1138 0.33252 0 18.4463 0 40.7907C0 53.3841 5.75379 64.6336 14.7759 72.0538C5.75379 79.474 0 90.7235 0 103.317C0 125.661 18.1138 143.775 40.4582 143.775C62.8026 143.775 80.9164 125.661 80.9164 103.317C80.9164 90.7235 75.1626 79.474 66.1405 72.0538ZM66.1405 72.0538C59.1546 66.3083 50.2093 62.8587 40.4582 62.8587C30.7071 62.8587 21.7618 66.3083 14.7759 72.0538C21.7618 77.7993 30.7071 81.2489 40.4582 81.2489C50.2093 81.2489 59.1546 77.7993 66.1405 72.0538Z" fill="white"/>
</svg>
