<?xml version="1.0" standalone="no"?>
<!DOCTYPE svg PUBLIC "-//W3C//DTD SVG 20010904//EN"
 "http://www.w3.org/TR/2001/REC-SVG-20010904/DTD/svg10.dtd">
<svg version="1.0" xmlns="http://www.w3.org/2000/svg"
 width="1024.000000pt" height="1024.000000pt" viewBox="0 0 1024.000000 1024.000000"
 preserveAspectRatio="xMidYMid meet">

<g transform="translate(0.000000,1024.000000) scale(0.100000,-0.100000)"
fill="#dbdada" stroke="none">
<path d="M4365 10108 c-44 -5 -87 -12 -95 -15 -8 -3 -22 -5 -31 -4 -22 2 -131
-27 -143 -39 -5 -5 -24 -10 -41 -10 -16 0 -45 -9 -63 -20 -18 -11 -43 -20 -56
-20 -13 0 -29 -6 -35 -14 -7 -8 -28 -17 -49 -21 -20 -4 -47 -16 -59 -27 -12
-11 -28 -18 -36 -15 -8 3 -25 -5 -38 -19 -13 -14 -30 -22 -39 -19 -10 3 -26
-5 -40 -20 -13 -14 -31 -25 -39 -25 -9 0 -27 -12 -40 -25 -13 -14 -30 -25 -38
-25 -8 0 -24 -11 -35 -25 -11 -14 -25 -25 -32 -25 -6 0 -30 -18 -51 -40 -21
-22 -47 -40 -57 -40 -10 0 -23 -11 -28 -24 -5 -13 -22 -28 -39 -34 -17 -6 -31
-18 -31 -26 0 -9 -12 -23 -27 -33 -16 -10 -50 -40 -76 -68 -143 -148 -177
-186 -177 -195 0 -5 -13 -19 -30 -32 -16 -12 -30 -30 -30 -39 0 -10 -9 -20
-19 -24 -11 -3 -23 -15 -26 -26 -4 -10 -17 -32 -31 -48 -13 -16 -33 -49 -44
-74 -11 -25 -27 -47 -35 -51 -8 -3 -15 -14 -15 -24 0 -10 -11 -29 -25 -42 -14
-13 -23 -30 -20 -38 3 -8 -6 -27 -20 -43 -13 -16 -22 -35 -19 -42 2 -7 -4 -22
-16 -32 -11 -10 -20 -23 -20 -28 0 -6 -9 -29 -19 -51 -18 -39 -58 -150 -94
-261 -60 -190 -86 -534 -57 -783 26 -229 98 -565 170 -794 31 -99 30 -102 -32
-73 -117 55 -234 18 -283 -88 -30 -63 -32 -144 -10 -299 8 -57 21 -155 30
-218 25 -180 83 -388 148 -530 34 -76 179 -304 233 -367 50 -58 96 -90 157
-108 l42 -12 5 -69 c3 -44 9 -68 16 -67 8 2 12 -18 11 -58 0 -44 4 -63 16 -72
11 -8 17 -31 19 -66 2 -32 8 -56 16 -59 6 -2 12 3 12 12 0 27 17 18 23 -12 10
-57 28 -148 32 -169 7 -30 31 -30 39 0 7 21 7 21 15 2 5 -11 11 -40 15 -65 9
-61 20 -78 40 -61 13 11 17 7 27 -28 8 -27 37 -66 91 -122 l79 -81 9 -72 c4
-39 11 -115 15 -168 l7 -97 -63 -32 c-35 -17 -98 -54 -139 -82 -41 -28 -95
-59 -120 -70 -25 -11 -80 -40 -123 -65 l-78 -45 -132 -7 c-222 -12 -220 -11
-375 -223 -96 -132 -154 -186 -223 -206 -20 -6 -94 -20 -165 -31 -71 -10 -158
-29 -193 -40 -197 -66 -374 -186 -584 -398 -142 -144 -182 -168 -253 -157
l-49 9 40 6 c31 4 17 7 -60 13 -248 18 -350 -7 -449 -107 -22 -23 -79 -74
-126 -113 -177 -148 -279 -283 -213 -283 8 0 80 60 161 134 81 74 148 133 150
131 2 -1 -19 -42 -45 -89 l-48 -87 -37 5 c-43 5 -42 6 -27 -44 10 -34 15 -38
43 -36 26 1 31 -2 29 -21 -2 -17 4 -24 25 -28 39 -9 56 -19 68 -43 6 -12 13
-19 17 -16 9 9 57 -27 57 -43 0 -10 6 -13 16 -9 24 9 42 -11 50 -51 7 -35 7
-35 19 -13 12 23 13 23 44 -20 17 -24 31 -40 31 -36 0 14 80 -54 155 -134 83
-87 164 -185 228 -276 78 -109 230 -398 279 -528 77 -206 155 -462 145 -473
-2 -1 -27 38 -56 87 -56 95 -80 125 -235 294 l-100 108 54 48 c57 50 65 83 9
36 -17 -15 -43 -33 -58 -40 -24 -13 -29 -12 -50 10 l-24 25 66 62 c61 56 81
87 59 87 -19 0 -162 -116 -242 -195 -66 -66 -88 -82 -100 -75 -29 19 -50 12
-50 -16 0 -31 46 -78 117 -119 73 -43 329 -253 319 -262 -2 -3 -33 15 -67 39
-77 53 -208 131 -307 184 l-74 39 -19 -24 c-10 -13 -19 -27 -19 -32 0 -13 37
-11 45 2 5 7 13 5 24 -6 9 -8 81 -59 161 -112 80 -53 186 -126 235 -163 50
-37 113 -82 140 -100 28 -19 66 -52 86 -74 42 -47 59 -42 59 19 0 39 -7 53
-61 119 -64 80 -305 306 -399 374 -30 22 -74 54 -98 72 -23 17 -42 34 -42 38
0 12 126 102 142 102 7 0 19 -9 26 -20 10 -17 8 -24 -19 -55 l-31 -35 37 16
c36 15 38 14 61 -7 13 -12 24 -28 24 -35 0 -7 6 -17 14 -21 34 -20 211 -224
253 -292 58 -95 123 -166 136 -148 6 8 7 7 3 -5 -3 -10 3 -39 14 -64 24 -54
53 -58 58 -8 6 59 -48 283 -118 496 -75 226 -194 486 -284 622 -25 38 -46 74
-46 81 0 7 25 43 55 80 31 37 61 77 67 89 11 20 12 20 25 -13 12 -29 12 -36
-1 -50 -23 -26 -66 -112 -66 -133 0 -29 16 -13 52 52 18 33 36 60 40 60 9 0
21 -40 20 -71 0 -14 -10 -42 -21 -63 -12 -20 -21 -43 -21 -51 0 -29 21 -14 40
27 l19 42 10 -27 c15 -39 14 -78 -4 -120 -15 -37 -11 -67 9 -67 22 0 82 94
116 180 33 83 281 572 365 720 24 41 51 101 61 133 20 65 16 67 54 -38 l18
-49 -53 -76 c-29 -41 -92 -149 -140 -240 -184 -346 -290 -538 -348 -629 -41
-64 -56 -96 -48 -104 21 -21 59 24 137 167 43 81 115 213 160 294 44 81 120
223 170 316 49 93 98 185 109 205 l20 36 8 -66 c8 -62 7 -69 -23 -130 -18 -35
-54 -100 -80 -144 -26 -44 -77 -138 -115 -210 -120 -231 -217 -408 -277 -506
-32 -53 -58 -101 -58 -108 0 -52 95 77 204 277 31 56 80 146 110 201 30 54 70
132 88 172 19 41 56 105 81 143 26 39 57 90 69 115 l22 46 12 -105 c9 -84 9
-106 -1 -112 -7 -5 -18 -32 -25 -60 -13 -57 -146 -341 -296 -635 -51 -100 -95
-199 -99 -220 -3 -21 -14 -67 -26 -102 -11 -35 -18 -65 -15 -68 12 -13 46 22
62 64 30 81 99 241 174 403 121 261 174 396 222 565 l11 40 18 -70 c29 -113
26 -138 -32 -245 -120 -223 -393 -809 -405 -869 -12 -56 16 -34 50 42 18 39
78 164 133 277 55 113 103 216 108 228 4 13 44 102 90 198 l82 173 10 -70 c9
-68 8 -71 -22 -122 -17 -29 -43 -81 -59 -117 -16 -36 -90 -186 -166 -335 -130
-254 -168 -340 -157 -351 18 -18 53 40 174 285 74 152 159 327 188 388 52 112
52 112 59 75 14 -85 6 -109 -93 -277 -132 -223 -221 -394 -221 -423 0 -31 37
-3 64 48 25 49 79 149 208 388 22 40 42 72 43 70 7 -7 -16 -381 -26 -427 -6
-25 -26 -80 -45 -122 -19 -42 -34 -84 -34 -93 0 -31 20 -15 41 33 11 27 32 59
45 72 45 42 76 201 95 483 10 163 12 171 39 205 16 20 36 56 46 81 9 25 56
128 104 230 48 102 91 201 95 220 9 43 81 230 125 325 92 199 102 218 110 204
25 -48 21 -67 -55 -212 -69 -133 -161 -374 -153 -399 2 -6 11 7 20 28 93 217
125 288 167 366 27 49 51 86 54 81 4 -6 9 -27 12 -49 6 -32 0 -54 -30 -119
-20 -44 -53 -116 -73 -160 -28 -59 -38 -74 -40 -56 -3 18 -9 11 -32 -36 -15
-32 -57 -109 -93 -172 -37 -63 -78 -146 -93 -185 -15 -39 -62 -145 -105 -235
-44 -90 -77 -166 -74 -169 19 -20 104 135 192 348 45 111 115 261 119 257 2
-2 -7 -41 -21 -88 -28 -95 -32 -133 -8 -76 12 29 18 35 25 25 6 -9 8 -7 6 8
-2 12 2 32 9 45 33 67 202 439 215 474 l15 39 17 -31 c18 -35 22 -138 6 -148
-5 -3 -10 -14 -10 -23 0 -13 2 -13 14 3 13 19 15 17 21 -18 7 -34 4 -42 -21
-66 -50 -48 -180 -242 -245 -366 -70 -134 -67 -130 -73 -124 -3 3 6 42 20 89
13 46 24 89 24 94 -1 35 -54 -119 -65 -189 -3 -22 -13 -51 -21 -65 -15 -25
-15 -25 -10 10 l5 35 -10 -35 c-19 -62 -61 -164 -90 -215 -15 -27 -37 -71 -48
-97 -31 -73 -2 -61 37 14 18 35 48 92 67 128 19 36 38 70 42 75 5 6 19 34 32
64 24 56 111 194 118 187 2 -2 -11 -28 -30 -57 -40 -64 -131 -249 -199 -408
-26 -62 -71 -152 -98 -198 -28 -47 -50 -87 -50 -89 0 -2 9 -4 20 -4 12 0 29
15 44 38 37 58 139 265 180 365 20 48 62 140 94 205 32 64 82 171 111 237 46
107 79 160 159 260 26 33 36 26 47 -33 5 -29 -1 -47 -48 -125 -30 -51 -87
-157 -125 -237 -39 -80 -90 -179 -114 -220 -23 -41 -70 -133 -104 -205 -34
-71 -82 -166 -108 -210 -37 -65 -43 -81 -30 -83 9 -2 22 2 29 10 23 24 173
302 190 352 9 26 35 78 57 115 23 36 92 170 154 296 62 127 115 223 117 215
34 -102 34 -112 3 -153 -13 -18 -40 -64 -59 -103 -19 -38 -68 -126 -108 -195
-40 -68 -85 -152 -100 -185 -15 -34 -64 -120 -107 -193 -81 -133 -137 -254
-127 -272 12 -18 26 3 84 121 31 65 87 162 123 216 61 93 218 373 218 390 0 4
26 53 57 108 l57 101 13 -50 c7 -28 13 -59 13 -71 0 -12 -41 -93 -91 -180
-127 -223 -213 -406 -254 -542 -36 -117 34 2 163 278 19 41 71 144 115 229
l80 153 18 -58 c24 -76 24 -83 -5 -113 -14 -15 -53 -82 -86 -151 -34 -69 -79
-154 -100 -190 -40 -68 -52 -105 -35 -110 16 -5 58 64 152 251 49 96 93 173
98 172 6 -1 17 -46 26 -100 9 -54 22 -116 27 -138 6 -22 18 -94 27 -160 21
-154 21 -155 52 -155 l26 0 -6 118 c-3 64 -15 157 -25 206 l-20 90 23 18 c13
10 31 42 41 71 9 28 37 92 61 140 51 102 190 425 200 465 6 27 6 27 24 -13 25
-57 23 -103 -7 -155 -43 -74 -295 -603 -289 -608 2 -3 15 2 28 10 23 16 297
551 297 582 0 33 18 23 38 -22 37 -84 37 -87 -7 -140 -22 -26 -61 -84 -86
-127 -62 -108 -195 -371 -195 -385 0 -6 8 -10 17 -8 19 3 96 132 154 256 37
79 157 271 170 272 3 0 13 -22 22 -49 l16 -50 -61 -113 c-33 -62 -79 -144
-103 -183 -82 -136 -101 -185 -71 -185 15 0 230 369 242 415 7 27 7 26 35 -22
35 -59 36 -70 5 -94 -14 -11 -39 -45 -57 -77 -17 -31 -51 -91 -75 -133 -24
-42 -44 -79 -44 -82 0 -14 38 -6 52 11 9 9 46 77 84 149 38 73 72 133 76 133
10 0 48 -70 48 -89 0 -10 -7 -24 -15 -31 -25 -21 -115 -175 -121 -209 -7 -34
5 -41 27 -15 8 9 39 63 69 120 l56 103 72 -145 c83 -166 117 -224 133 -224 21
0 1 74 -55 204 -30 69 -69 165 -87 213 -18 49 -58 136 -90 194 -56 103 -82
179 -61 179 20 0 104 142 193 325 49 102 93 185 97 185 4 0 20 -12 35 -25 l28
-25 -19 -28 c-11 -15 -57 -99 -102 -187 -45 -88 -102 -196 -126 -241 -42 -78
-54 -114 -36 -114 22 0 59 63 173 293 68 136 128 247 134 247 5 0 19 -7 30
-16 19 -14 19 -15 -12 -77 -18 -34 -68 -136 -112 -227 -44 -91 -96 -194 -116
-229 -39 -71 -45 -104 -17 -99 17 3 107 173 246 465 32 68 64 123 70 123 19 0
47 -35 37 -46 -5 -5 -77 -145 -161 -312 -140 -279 -167 -349 -135 -346 10 1
125 226 259 509 45 94 70 135 75 126 7 -11 9 -11 14 0 4 11 8 11 21 -2 15 -14
14 -21 -23 -95 -219 -442 -301 -611 -301 -621 0 -22 18 -14 40 17 11 16 61
111 111 212 186 377 223 448 233 448 5 0 17 -7 26 -15 16 -14 12 -25 -49 -148
-94 -188 -288 -598 -296 -624 -5 -17 -2 -23 10 -23 13 0 162 290 348 680 39
82 41 84 65 71 19 -10 17 -18 -70 -203 -49 -106 -116 -249 -148 -318 -106
-228 -149 -350 -122 -350 8 0 122 237 226 470 36 80 86 188 112 240 25 52 50
105 55 118 7 19 12 21 29 12 11 -6 20 -12 20 -14 0 -2 -19 -41 -41 -87 -52
-104 -131 -299 -126 -312 1 -5 48 81 102 192 55 110 105 201 110 201 6 0 16
-4 24 -9 11 -7 0 -35 -52 -139 -37 -71 -90 -169 -118 -218 -144 -246 -253
-459 -245 -480 11 -28 30 -9 76 77 55 102 181 334 284 524 42 77 84 157 94
177 19 42 22 43 44 25 14 -11 10 -24 -36 -123 -28 -61 -81 -164 -117 -230
-173 -310 -242 -464 -210 -464 11 0 87 133 163 285 30 61 81 154 112 208 61
106 136 262 136 283 0 17 11 18 45 2 22 -10 23 -13 11 -27 -14 -16 -275 -528
-330 -648 -17 -37 -26 -68 -22 -79 6 -15 9 -16 21 -3 7 8 57 102 111 209 53
107 126 249 161 315 36 66 73 140 83 165 10 25 23 45 29 44 6 -1 20 -2 31 -3
11 0 20 -5 20 -10 0 -5 -78 -162 -173 -348 -197 -387 -213 -420 -203 -431 18
-18 53 43 299 530 l120 237 31 -6 c17 -3 32 -7 34 -8 2 -2 -8 -22 -23 -45 -60
-95 -326 -645 -314 -649 24 -8 28 -1 335 597 45 87 49 93 73 87 14 -4 27 -8
28 -9 1 -1 -64 -137 -146 -302 -82 -164 -154 -316 -162 -336 -13 -37 -7 -60
11 -42 5 5 85 160 178 344 154 304 172 335 193 332 12 -1 24 -4 26 -6 6 -5
-131 -296 -221 -471 -70 -136 -90 -195 -67 -195 15 0 207 369 307 587 28 63
36 73 58 73 14 0 26 -2 26 -5 0 -2 -56 -119 -124 -258 -132 -271 -143 -297
-127 -297 31 0 181 271 252 455 l40 105 45 0 44 0 -34 -53 c-19 -29 -47 -79
-63 -112 -16 -33 -77 -154 -137 -268 -60 -114 -106 -210 -103 -213 12 -13 89
97 154 222 40 77 108 204 151 284 78 143 80 145 115 148 21 2 37 1 37 -1 0 -2
-41 -82 -91 -178 -174 -331 -289 -559 -289 -574 0 -31 27 -13 57 38 35 59 164
308 292 562 83 164 87 170 119 173 17 2 32 -1 32 -7 0 -6 -83 -177 -185 -380
-102 -204 -185 -375 -185 -381 0 -58 111 129 280 469 51 102 100 208 111 236
26 70 39 85 82 94 37 9 46 4 28 -15 -15 -15 -359 -709 -367 -739 -10 -40 14
-29 49 23 30 45 257 494 330 656 45 98 76 133 111 124 9 -2 -47 -123 -161
-353 -151 -302 -243 -496 -243 -511 0 -2 8 -4 19 -4 14 0 49 60 149 258 71
141 171 345 220 452 87 187 113 226 146 218 21 -4 -31 -125 -234 -538 -88
-179 -161 -336 -162 -349 -2 -13 2 -26 9 -28 13 -5 211 383 384 750 50 106
101 203 112 215 22 24 102 70 96 55 -2 -4 -101 -204 -220 -443 -238 -478 -265
-539 -255 -566 7 -17 9 -17 27 6 19 24 159 304 202 405 12 28 75 154 140 280
66 127 130 259 144 294 31 84 56 117 103 141 22 11 42 20 44 20 3 0 -8 -26
-24 -57 -31 -60 -108 -226 -282 -608 -55 -121 -121 -263 -147 -315 -27 -53
-51 -108 -54 -122 -9 -34 9 -46 29 -22 28 34 312 640 486 1034 32 74 70 151
83 170 22 31 125 128 125 117 0 -13 -408 -897 -604 -1310 -45 -94 -53 -131
-31 -131 20 0 67 85 176 314 117 248 159 338 259 565 34 77 72 163 85 190 50
107 123 273 149 340 43 112 45 117 96 185 26 36 53 76 59 88 7 13 15 21 18 18
10 -9 -70 -208 -198 -496 -64 -146 -135 -308 -157 -360 -23 -52 -86 -194 -142
-315 -149 -322 -220 -490 -220 -519 0 -56 29 -21 85 101 58 129 128 282 225
493 29 63 90 203 136 310 45 107 122 285 169 395 48 110 100 234 116 275 15
41 45 118 67 170 21 52 58 145 81 205 23 61 53 135 67 165 13 30 46 118 74
195 28 77 78 201 110 275 71 160 150 378 159 437 l6 41 26 -22 26 -23 -72
-214 c-40 -118 -93 -266 -118 -329 -25 -63 -73 -185 -107 -270 -34 -85 -72
-184 -86 -220 -60 -165 -126 -326 -236 -584 -66 -153 -153 -362 -194 -463 -41
-101 -91 -219 -111 -261 -19 -42 -52 -117 -73 -167 -21 -49 -72 -169 -114
-266 -73 -168 -91 -235 -63 -227 23 7 120 221 382 848 40 96 94 225 120 285
26 61 80 189 119 285 40 96 78 186 85 199 7 13 24 53 36 90 13 36 43 113 65
171 23 58 55 141 71 185 16 44 43 109 59 145 67 146 260 711 260 761 0 24 22
24 43 1 14 -16 9 -37 -75 -272 -49 -140 -105 -293 -125 -340 -19 -47 -56 -141
-83 -210 -26 -69 -62 -158 -80 -198 -17 -40 -51 -128 -76 -195 -25 -67 -104
-270 -176 -452 -71 -181 -138 -352 -148 -380 -69 -187 -291 -768 -330 -863
-15 -34 -12 -69 5 -76 10 -4 20 6 30 31 8 19 15 38 15 40 0 3 34 91 76 196
121 304 192 491 244 642 27 77 87 237 135 355 94 230 124 306 242 610 42 107
103 263 135 345 103 258 248 675 248 711 0 13 3 24 6 24 4 0 45 -21 93 -47 47
-26 112 -59 144 -75 32 -15 75 -39 96 -52 21 -14 85 -48 142 -77 57 -28 105
-53 107 -55 2 -1 -3 -13 -11 -26 -38 -60 -480 -1408 -611 -1863 -14 -49 -42
-142 -62 -205 -20 -63 -46 -151 -59 -195 -12 -44 -27 -96 -33 -115 -10 -34
-10 -34 -5 10 9 77 53 259 93 385 21 66 62 197 90 290 29 94 70 225 91 292 21
67 57 193 80 280 22 87 61 222 85 301 25 79 51 172 60 208 8 35 36 133 63 216
93 289 131 416 131 434 0 17 -2 16 -22 -3 -25 -26 -157 -406 -245 -708 -19
-66 -45 -151 -58 -190 -13 -38 -35 -115 -50 -170 -14 -55 -38 -136 -52 -180
-14 -44 -49 -161 -78 -260 -28 -99 -73 -246 -99 -328 -60 -193 -77 -259 -132
-522 -59 -286 -61 -295 -41 -295 9 0 17 13 22 36 9 51 26 84 42 84 32 0 127
275 308 895 91 313 177 581 334 1045 108 318 181 547 181 565 0 22 40 18 103
-10 80 -37 82 -42 47 -108 -28 -51 -83 -193 -140 -357 -12 -36 -39 -112 -60
-170 -58 -159 -147 -450 -219 -720 -40 -145 -64 -228 -156 -540 -52 -176 -99
-356 -129 -500 -30 -143 -30 -140 -12 -140 18 0 39 53 66 170 35 149 69 278
97 365 38 120 116 391 189 655 88 318 155 533 273 870 61 174 121 369 121 391
0 26 9 24 46 -12 l33 -32 -23 -46 c-13 -25 -35 -82 -49 -126 -14 -44 -40 -118
-57 -165 -57 -152 -178 -541 -225 -720 -26 -96 -66 -236 -90 -310 -118 -365
-258 -893 -267 -1010 -2 -35 0 -45 12 -45 16 0 24 26 95 310 42 171 94 349
219 762 31 101 76 258 101 349 26 92 98 325 161 518 63 193 121 377 127 409
l13 57 33 -27 32 -28 -26 -59 c-42 -96 -267 -781 -314 -956 -11 -41 -29 -104
-41 -140 -11 -36 -28 -92 -36 -125 -8 -33 -33 -116 -54 -185 -88 -287 -110
-360 -134 -451 -26 -100 -106 -486 -106 -514 0 -11 7 -15 22 -13 21 3 26 18
60 178 57 265 125 530 173 676 24 72 62 196 84 275 63 220 109 375 141 469 16
47 41 128 55 180 15 52 55 181 90 285 34 105 73 229 86 276 l24 86 30 -13 c26
-11 60 -19 203 -50 18 -4 21 -8 13 -17 -30 -36 -266 -707 -340 -967 -53 -186
-139 -468 -155 -510 -13 -33 -75 -276 -111 -438 -22 -94 -43 -241 -37 -247 12
-12 32 -4 32 13 0 26 132 546 168 662 16 52 80 257 142 455 62 198 126 403
142 455 16 52 57 178 93 280 35 102 71 213 81 248 15 57 19 62 44 62 56 0 60
-7 34 -54 -71 -127 -309 -845 -459 -1381 -44 -161 -108 -458 -138 -648 -20
-130 -2 -129 81 6 46 74 54 100 96 272 26 105 59 231 75 280 68 211 218 662
317 950 169 494 175 515 169 525 -11 18 -23 2 -60 -78 -38 -79 -119 -310 -245
-697 -39 -121 -91 -278 -115 -350 -70 -209 -146 -452 -176 -565 -29 -105 -29
-105 -23 -40 18 216 196 820 445 1514 44 120 79 227 79 238 0 13 5 18 14 15 8
-3 34 -11 58 -17 24 -7 60 -21 81 -32 36 -18 38 -21 23 -37 -19 -21 -48 -91
-116 -281 -27 -74 -72 -198 -100 -275 -138 -378 -340 -994 -405 -1240 -20 -71
-48 -170 -65 -220 -38 -117 -42 -155 -16 -155 8 0 17 12 20 28 4 15 24 83 46
152 22 69 63 204 91 300 70 239 277 854 413 1225 69 187 156 445 156 461 0 21
11 18 105 -28 l86 -41 -20 -21 c-11 -12 -33 -57 -49 -101 -17 -44 -40 -102
-52 -130 -31 -69 -127 -325 -155 -410 -13 -38 -32 -95 -44 -125 -11 -30 -28
-82 -37 -115 -11 -35 -46 -101 -85 -161 -70 -106 -105 -144 -71 -78 11 22 40
100 65 174 25 74 68 196 95 270 136 375 226 619 243 658 28 62 25 85 -9 64
-14 -9 -92 -196 -147 -351 -18 -53 -63 -175 -98 -271 -68 -186 -123 -351 -181
-545 -38 -123 -52 -168 -136 -410 -36 -103 -53 -172 -64 -260 -9 -66 -18 -135
-20 -153 -4 -25 -1 -32 12 -32 28 0 73 49 147 159 39 57 117 159 175 225 145
167 187 217 265 321 37 50 100 124 140 165 39 41 130 142 200 224 71 81 187
206 258 277 72 71 127 132 124 135 -20 20 -114 -53 -248 -192 -129 -133 -443
-493 -622 -714 -87 -107 -183 -224 -213 -260 -31 -36 -83 -103 -116 -150 -33
-47 -64 -89 -69 -94 -13 -15 120 373 147 428 14 28 42 78 63 111 21 33 51 82
66 109 15 27 101 126 191 220 90 94 185 200 212 236 27 36 131 145 232 242
100 97 180 182 178 188 -11 35 -320 -251 -460 -425 -63 -79 -228 -245 -228
-230 0 25 195 287 308 414 77 86 206 197 286 245 31 19 85 42 121 51 55 15 69
16 97 4 39 -16 174 -152 270 -272 71 -88 84 -97 106 -75 22 22 13 46 -49 128
-174 230 -280 312 -763 591 -246 141 -348 176 -635 219 -163 24 -183 35 -312
162 -87 86 -100 95 -169 118 -41 13 -106 37 -145 53 -76 30 -490 247 -594 310
-101 61 -280 199 -341 262 -71 74 -141 121 -283 190 l-115 56 -4 457 -5 457
29 37 c36 46 54 90 63 151 7 47 8 47 27 30 26 -24 36 -5 30 57 -6 69 4 118 26
116 14 -1 18 12 24 69 5 39 5 92 2 120 -6 45 -5 48 10 36 26 -21 31 -5 16 47
-7 26 -13 62 -12 80 1 17 3 47 4 65 1 17 -2 53 -6 78 l-8 46 59 22 c138 52
232 148 318 327 68 142 111 275 137 428 27 163 22 430 -12 581 -61 274 -158
395 -316 395 -51 0 -153 -49 -188 -91 l-25 -29 -5 53 c-3 28 -8 120 -11 202
-25 661 -205 1214 -530 1630 -99 126 -322 343 -385 373 -17 8 -30 18 -30 23 0
5 -17 18 -37 29 -21 11 -58 36 -83 55 -25 19 -63 44 -85 56 -22 12 -44 28 -48
35 -4 8 -18 14 -31 14 -13 0 -30 7 -37 16 -8 9 -33 25 -56 35 -24 10 -43 23
-43 29 0 7 -8 9 -19 5 -10 -3 -25 1 -33 8 -7 8 -32 20 -53 28 -22 7 -49 19
-60 26 -11 7 -28 13 -39 13 -11 0 -28 7 -37 16 -10 9 -31 17 -46 17 -15 0 -38
6 -50 14 -13 9 -29 13 -36 10 -7 -3 -21 1 -32 9 -10 8 -32 14 -48 14 -15 0
-37 5 -48 10 -19 10 -71 20 -140 25 -20 1 -42 6 -49 10 -19 12 -378 13 -475 3z
m305 -72 c0 -7 -7 -30 -16 -51 -28 -69 -11 -73 30 -7 30 48 44 62 62 62 29 0
29 -5 4 -58 -11 -23 -25 -54 -31 -69 -9 -23 -8 -25 7 -12 9 7 34 39 55 71 36
53 63 70 82 52 3 -3 -8 -31 -25 -61 -27 -49 -29 -55 -12 -51 10 2 33 27 49 56
26 46 33 51 55 46 14 -3 26 -7 28 -8 1 -2 -29 -65 -68 -141 -38 -76 -70 -142
-70 -147 0 -23 19 -2 44 50 39 79 138 232 150 232 6 0 17 -4 24 -9 11 -7 7
-21 -19 -72 -74 -145 -100 -202 -96 -212 2 -7 25 29 51 78 27 50 57 101 67
115 11 14 24 35 31 48 12 23 33 28 58 12 13 -8 13 -12 1 -32 -23 -36 -101
-178 -101 -183 0 -2 6 -2 14 1 8 3 28 32 46 65 37 69 86 129 105 129 26 0 26
-20 1 -56 -24 -36 -26 -54 -4 -54 6 0 27 18 47 40 27 29 42 39 54 34 16 -6 16
-9 3 -29 -8 -12 -22 -39 -31 -61 l-16 -39 53 53 c30 28 59 52 66 52 28 0 23
-32 -12 -70 -35 -39 -45 -60 -27 -60 13 0 101 70 101 80 0 14 13 12 34 -3 16
-12 15 -16 -20 -52 -30 -32 -34 -41 -20 -43 9 -2 35 12 56 32 45 40 44 40 71
25 19 -10 18 -12 -15 -47 -20 -20 -36 -40 -36 -44 0 -18 34 -6 72 23 l39 32
39 -19 38 -19 -25 -23 c-29 -26 -25 -39 7 -22 13 7 38 8 68 4 40 -6 43 -8 22
-14 -14 -4 -45 -17 -69 -29 -39 -20 -42 -24 -29 -38 14 -13 20 -12 61 6 51 23
90 28 127 16 23 -7 21 -9 -25 -22 -60 -18 -111 -51 -97 -65 6 -6 38 -1 87 15
64 20 83 22 107 13 16 -6 23 -12 16 -14 -35 -9 -115 -46 -130 -59 -33 -29 -8
-31 70 -7 89 27 110 29 136 9 21 -16 23 -14 -49 -35 -64 -18 -95 -32 -95 -41
0 -14 37 -11 118 8 65 15 74 15 88 2 13 -14 9 -17 -43 -28 -66 -15 -113 -37
-113 -52 0 -7 12 -9 33 -5 100 18 188 26 203 18 12 -7 -10 -15 -80 -31 -90
-21 -110 -31 -86 -46 5 -3 55 1 111 10 81 12 105 12 117 3 12 -10 -1 -15 -69
-25 -89 -14 -111 -25 -91 -45 9 -9 34 -9 108 1 80 11 98 10 105 -1 14 -21 11
-24 -33 -25 -56 -2 -168 -25 -168 -34 0 -3 6 -12 14 -18 10 -8 40 -7 121 6
105 17 107 17 121 -2 14 -19 12 -20 -58 -32 -40 -6 -90 -12 -110 -12 -40 -1
-47 -11 -24 -30 10 -8 47 -9 125 -5 83 5 114 4 126 -6 26 -22 17 -25 -57 -22
-78 4 -150 -7 -155 -23 -7 -25 17 -39 63 -36 68 3 192 -19 217 -40 32 -26 14
-34 -33 -15 -51 20 -172 38 -183 27 -5 -5 8 -12 27 -15 51 -10 175 -50 212
-69 16 -8 35 -27 42 -41 l11 -25 -79 34 c-91 39 -198 71 -207 61 -3 -3 -4 -7
-2 -9 12 -9 172 -79 221 -97 51 -19 126 -75 115 -87 -3 -2 -61 19 -130 47
-128 51 -147 57 -147 41 0 -13 20 -26 70 -45 25 -10 86 -38 137 -63 74 -37 94
-52 102 -76 8 -22 8 -28 -2 -24 -6 3 -76 36 -155 73 -78 36 -145 64 -149 61
-12 -13 23 -39 119 -89 55 -28 106 -60 114 -72 8 -13 39 -40 69 -62 47 -34 92
-91 80 -102 -2 -3 -41 25 -87 60 -110 85 -268 191 -275 184 -11 -10 29 -46
147 -134 203 -151 222 -166 237 -189 33 -50 3 -38 -96 37 -133 102 -239 175
-246 168 -11 -10 37 -57 127 -126 222 -170 242 -187 250 -216 4 -17 6 -31 5
-32 -1 -1 -33 24 -71 57 -76 65 -268 200 -274 194 -13 -12 21 -45 160 -155
178 -142 198 -162 198 -197 l0 -26 -23 24 c-24 26 -100 87 -222 178 -54 41
-83 57 -90 50 -12 -13 52 -72 202 -189 108 -85 153 -131 153 -158 0 -9 3 -28
6 -42 5 -20 -5 -14 -57 37 -72 69 -276 233 -290 233 -28 0 2 -37 93 -116 252
-220 267 -236 268 -278 0 -15 -14 -6 -58 35 -110 103 -282 237 -282 221 0 -15
65 -81 200 -202 136 -122 150 -137 150 -157 0 -22 -43 8 -176 119 -111 94
-134 109 -134 89 0 -12 165 -169 243 -230 37 -29 67 -59 67 -67 0 -8 -3 -14
-6 -14 -12 0 -133 90 -204 151 -39 34 -70 58 -70 54 0 -37 98 -132 213 -205
52 -34 67 -48 67 -68 0 -23 -1 -23 -47 16 -27 21 -61 47 -78 58 -28 17 -28 16
10 -26 21 -25 55 -58 75 -73 21 -17 38 -41 42 -60 3 -18 6 -33 5 -34 -1 -1
-49 49 -107 111 -107 115 -152 152 -170 141 -6 -4 46 -65 117 -139 124 -128
164 -179 150 -193 -4 -3 -55 42 -114 100 -58 59 -110 107 -115 107 -20 0 -2
-26 73 -108 45 -48 98 -107 117 -132 20 -25 39 -49 43 -54 4 -5 38 18 76 49
91 78 175 131 219 139 49 10 119 -26 161 -81 114 -152 156 -565 88 -869 -69
-305 -194 -519 -352 -602 l-62 -33 -5 23 c-3 13 -12 127 -21 253 -8 127 -24
316 -34 420 -11 105 -18 191 -17 193 2 1 20 -26 41 -60 46 -77 52 -121 31
-222 -20 -99 -21 -166 -2 -166 43 0 108 216 92 303 -3 18 -24 63 -46 100 -22
36 -40 73 -40 81 0 22 40 46 76 46 17 0 37 7 44 15 19 22 -5 45 -46 45 -26 0
-34 4 -34 18 1 28 36 95 64 121 17 16 26 35 26 55 1 33 64 131 79 121 5 -2 12
-22 16 -42 4 -21 25 -94 47 -163 78 -243 60 -436 -54 -566 -18 -20 -52 -45
-75 -55 -48 -20 -52 -30 -24 -58 44 -44 137 23 196 141 33 67 62 195 51 225
-4 8 -1 31 6 49 18 50 -4 179 -57 339 -25 73 -45 139 -45 148 0 8 11 18 25 21
32 8 32 19 -1 45 -87 69 -186 -29 -287 -284 -19 -49 -48 -117 -63 -150 -32
-70 -25 -81 -70 120 -25 112 -29 123 -66 158 -45 43 -86 72 -93 65 -3 -3 9
-24 26 -47 28 -39 69 -123 69 -139 0 -4 -9 4 -20 18 l-20 25 0 -28 c0 -15 11
-45 25 -65 27 -39 37 -82 11 -46 -30 40 -29 0 2 -62 37 -75 41 -97 10 -64 -33
35 -32 12 2 -64 30 -66 37 -101 10 -51 -7 14 -19 25 -27 25 -15 0 -18 -36 -4
-45 12 -7 53 -116 47 -123 -3 -2 -13 12 -22 32 -22 45 -39 47 -31 4 3 -18 10
-59 16 -90 5 -31 17 -71 27 -90 l16 -33 -30 29 c-48 45 -49 14 -3 -92 22 -51
38 -92 35 -92 -2 0 -20 25 -40 55 -34 54 -54 63 -54 26 0 -10 27 -73 60 -140
33 -66 58 -121 56 -121 -2 0 -25 31 -49 69 -57 85 -76 106 -90 92 -7 -7 15
-62 69 -171 44 -88 79 -160 78 -160 -1 0 -32 47 -69 105 -37 58 -71 105 -76
105 -23 0 -4 -60 57 -181 36 -72 63 -133 61 -135 -2 -2 -24 29 -50 69 -58 91
-106 142 -120 128 -7 -7 8 -41 45 -108 31 -54 77 -138 103 -188 27 -49 55
-101 63 -115 9 -14 11 -20 5 -15 -6 6 -58 83 -116 173 -95 144 -127 183 -127
152 0 -5 27 -64 61 -130 63 -126 77 -187 19 -84 -39 70 -79 124 -91 124 -20 0
-6 -47 37 -126 25 -46 42 -84 37 -84 -4 0 -3 -4 3 -8 6 -4 15 -18 19 -32 4
-14 -19 13 -50 60 -65 95 -84 120 -97 120 -15 0 -9 -26 18 -76 31 -58 124
-275 124 -289 0 -5 -29 42 -64 105 -87 156 -100 176 -111 170 -18 -9 -6 -44
61 -173 36 -71 64 -131 61 -133 -2 -2 -39 50 -81 116 -43 66 -84 120 -93 120
-18 0 -17 -1 59 -199 32 -85 57 -159 55 -165 -2 -6 -12 7 -21 29 -52 122 -121
255 -133 255 -7 0 -13 -4 -13 -8 0 -18 44 -141 82 -231 28 -67 36 -97 29 -104
-8 -8 -11 -7 -11 5 0 22 -118 258 -129 258 -20 0 -20 -20 0 -82 35 -109 38
-118 34 -118 -2 0 -23 36 -46 80 -69 133 -81 94 -24 -77 20 -58 34 -107 32
-109 -2 -2 -18 25 -35 59 -18 34 -46 78 -62 97 l-29 35 -1 -28 c0 -15 20 -96
44 -180 24 -83 46 -165 50 -182 l6 -30 -17 30 c-9 17 -40 86 -68 154 -46 114
-73 156 -91 138 -9 -8 47 -186 86 -273 53 -118 5 -49 -70 101 -40 80 -76 145
-81 145 -22 0 -17 -46 16 -130 20 -51 35 -96 33 -101 -2 -5 -23 27 -47 70 -78
142 -98 102 -30 -59 43 -102 119 -299 119 -309 0 -3 -41 73 -91 169 -50 96
-97 181 -105 189 -49 51 -14 -80 62 -231 58 -115 127 -278 121 -285 -2 -2 -32
50 -65 114 -106 202 -167 291 -186 272 -3 -3 15 -55 40 -115 44 -105 144 -378
144 -392 0 -15 -21 27 -46 93 -15 39 -51 118 -82 177 -82 160 -125 189 -78 53
34 -99 33 -113 -5 -45 -16 30 -39 64 -49 75 -20 19 -20 19 -20 0 0 -11 25 -92
55 -180 30 -87 55 -166 54 -175 0 -8 -6 3 -13 26 -16 50 -82 182 -104 207 -33
37 -30 -4 8 -118 38 -112 73 -246 65 -253 -1 -2 -17 35 -34 82 -49 136 -109
242 -126 224 -4 -4 11 -59 33 -122 37 -104 73 -259 71 -311 0 -11 -11 21 -24
70 -28 107 -76 236 -107 285 -20 32 -23 33 -26 13 -2 -12 15 -82 37 -155 51
-169 71 -250 70 -279 0 -23 -1 -23 -9 -4 -5 11 -35 96 -66 188 -53 156 -84
221 -98 206 -4 -3 5 -62 18 -130 33 -167 52 -357 39 -370 -7 -7 -14 10 -22 58
-18 105 -79 334 -96 360 -16 24 -35 31 -35 12 0 -6 11 -58 25 -117 29 -128 55
-283 55 -332 0 -24 -6 -39 -20 -48 -18 -11 -20 -10 -20 18 0 43 -46 323 -65
395 -20 77 -61 165 -76 165 -6 0 -8 -7 -5 -16 12 -31 66 -313 85 -448 19 -129
19 -141 4 -158 -22 -24 -33 -14 -33 31 0 144 -113 639 -143 628 -14 -5 -12
-25 13 -137 26 -117 56 -284 75 -414 12 -86 13 -116 4 -138 -6 -15 -15 -28
-20 -28 -9 0 -13 22 -30 165 -16 141 -42 273 -90 458 -6 21 -16 37 -24 37 -17
0 -19 -29 -5 -80 23 -86 90 -506 90 -571 0 -17 -6 -28 -18 -31 -16 -5 -19 6
-30 91 -11 95 -90 510 -115 605 -7 27 -19 52 -26 54 -18 6 -12 -69 22 -253 14
-77 35 -212 46 -300 12 -88 24 -175 27 -193 4 -27 2 -32 -14 -32 -16 0 -21 10
-26 48 -4 26 -20 117 -36 202 -16 85 -34 189 -40 230 -26 176 -53 302 -67 307
-29 11 -31 38 25 -352 16 -110 35 -245 41 -300 7 -55 14 -110 17 -122 5 -25
-33 -55 -40 -31 -6 21 -54 314 -71 433 -38 268 -50 339 -62 343 -20 6 -16
-131 7 -308 20 -145 64 -418 77 -468 4 -16 1 -22 -11 -22 -8 0 -18 10 -21 22
-2 13 -13 61 -24 108 -22 98 -66 374 -80 503 -6 48 -13 92 -16 97 -31 50 -33
-107 -4 -305 19 -130 63 -368 75 -407 11 -35 -27 -19 -42 18 -41 98 -114 514
-114 651 0 55 -7 67 -30 53 -28 -17 17 -433 71 -647 26 -103 21 -124 -15 -52
-57 117 -121 453 -114 602 3 87 -11 103 -31 35 -15 -47 -9 -180 15 -348 15
-103 49 -272 60 -294 3 -6 -2 -2 -11 9 -18 23 -65 165 -91 280 -14 60 -19 120
-19 238 0 116 -3 157 -12 157 -61 0 -29 -450 43 -625 14 -33 28 -67 31 -75 3
-8 -6 -4 -20 9 -45 40 -116 301 -124 454 -5 89 -8 97 -26 97 -19 0 -20 -4 -14
-107 9 -141 29 -246 84 -425 13 -42 -11 -13 -37 46 -39 85 -87 263 -95 351 -8
90 -13 105 -32 105 -14 0 -15 -12 -9 -98 8 -123 47 -315 75 -370 25 -50 21
-56 -7 -9 -49 85 -122 331 -122 416 0 40 -9 61 -27 61 -13 0 -14 -13 -8 -82
11 -131 40 -283 70 -363 5 -16 3 -15 -14 5 -11 14 -30 52 -41 86 -24 70 -70
303 -70 351 0 22 -5 33 -15 33 -11 0 -15 -17 -17 -72 -5 -109 -24 -98 -30 17
-5 98 -9 112 -27 100 -7 -4 -11 -60 -11 -153 -1 -199 -20 -167 -31 51 -7 143
-17 193 -34 175 -4 -3 -10 -77 -14 -164 -7 -158 -7 -158 -14 -74 -4 47 -10
144 -14 217 -7 109 -10 131 -22 124 -9 -6 -16 -35 -19 -86 -7 -106 -22 -75
-22 46 0 73 -3 98 -14 102 -24 9 -36 -15 -36 -72 0 -85 -9 -54 -15 50 -3 51
-9 97 -14 102 -18 18 -28 -4 -36 -80 -19 -190 -23 -199 -21 -43 2 162 0 190
-14 190 -16 0 -30 -75 -39 -202 l-9 -123 4 155 c2 85 7 185 10 223 7 77 -9 93
-26 25 -6 -24 -20 -69 -31 -101 -13 -39 -19 -87 -20 -155 l-1 -97 -15 129
c-13 109 -19 133 -37 148 -28 23 -36 22 -37 -4 -1 -13 -5 -1 -10 26 -7 44 -20
65 -42 66 -4 0 -5 -24 -2 -52 18 -168 22 -213 19 -216 -6 -8 -26 80 -50 222
-14 82 -27 153 -30 158 -27 43 -32 -71 -9 -227 17 -119 18 -132 6 -120 -5 6
-14 48 -21 95 -26 194 -46 282 -64 292 -9 5 -20 8 -23 5 -2 -3 0 -37 6 -76 6
-38 11 -82 11 -98 -1 -58 -20 5 -34 107 -13 101 -26 134 -46 114 -10 -10 -4
-94 15 -224 8 -50 -10 -17 -23 45 -6 28 -14 97 -17 155 -4 57 -9 108 -11 112
-13 21 -24 -9 -25 -65 l-1 -62 -13 74 c-13 68 -27 102 -40 90 -2 -3 9 -74 25
-159 27 -137 31 -174 15 -158 -5 4 -18 71 -59 296 -8 40 -20 80 -27 89 -12 14
-15 2 -19 -88 l-5 -104 -13 105 c-16 132 -24 172 -37 171 -5 -1 -12 -40 -15
-88 l-5 -88 -7 85 c-5 47 -8 105 -8 128 0 61 -22 50 -37 -19 l-12 -54 1 80 c1
83 -6 125 -23 125 -5 0 -9 -15 -10 -32 0 -18 -4 -51 -9 -73 -7 -30 -8 -14 -5
61 5 104 1 122 -22 103 -11 -9 -13 0 -13 50 0 34 -3 60 -7 58 -5 -3 -9 18 -11
46 -2 28 -6 54 -11 57 -4 3 -13 51 -20 108 -7 56 -17 105 -22 108 -5 3 -9 27
-9 55 0 48 -14 67 -23 32 -3 -10 -5 1 -6 25 0 23 -5 50 -10 60 -5 9 -17 91
-26 182 -9 91 -26 246 -38 345 -11 99 -22 198 -23 220 -2 22 -3 42 -3 44 -1 2
-10 -4 -21 -14 -24 -22 -24 -23 -5 39 17 56 20 125 5 110 -5 -5 -16 -27 -24
-49 -11 -30 -15 -34 -15 -17 -1 13 8 42 19 64 20 43 27 98 11 98 -4 0 -18 -24
-29 -52 -17 -44 -21 -48 -21 -25 -1 15 10 55 24 89 14 34 25 68 25 76 0 24
-38 -15 -52 -54 -6 -18 -15 -31 -20 -28 -15 9 -8 35 18 69 25 34 50 102 40
112 -9 9 -36 -18 -36 -36 0 -9 -12 -29 -26 -46 -24 -29 -25 -29 -18 -5 3 14
24 56 45 93 36 64 41 87 19 87 -5 0 -24 -25 -42 -55 -31 -52 -48 -68 -48 -45
0 5 18 48 41 94 22 47 38 90 34 96 -11 18 -36 -10 -62 -69 -19 -42 -27 -51
-36 -42 -9 9 -1 33 37 106 26 51 46 99 44 107 -3 7 -26 -20 -54 -62 -43 -66
-49 -72 -52 -49 -2 16 15 59 43 113 25 47 45 94 45 103 0 29 -35 -12 -66 -77
-18 -39 -31 -55 -36 -47 -14 21 -9 49 15 81 24 32 87 142 87 151 0 3 -4 5 -10
5 -5 0 -32 -35 -60 -77 -48 -74 -50 -75 -50 -44 0 33 40 114 87 178 26 36 29
53 9 53 -16 0 -74 -82 -82 -117 -10 -37 -24 -27 -24 16 0 32 8 49 43 89 55 66
80 109 67 117 -11 7 -34 -15 -92 -85 -31 -37 -38 -41 -38 -24 0 21 83 147 114
173 20 17 21 31 2 31 -8 0 -37 -25 -64 -55 -51 -56 -62 -64 -62 -44 0 13 122
169 133 169 4 0 7 7 7 15 0 27 -25 16 -75 -35 -27 -27 -52 -50 -56 -50 -19 0
10 47 67 111 57 64 77 99 57 99 -4 0 -32 -24 -61 -52 -44 -43 -53 -48 -47 -28
10 32 90 137 116 150 22 12 26 40 5 40 -7 0 -34 -18 -60 -41 -71 -63 -58 -20
19 59 61 63 78 92 55 92 -6 0 -34 -21 -62 -47 -48 -45 -50 -46 -35 -16 9 17
42 53 72 80 30 26 55 56 55 67 0 17 -1 17 -26 1 -14 -9 -39 -31 -56 -48 l-30
-32 26 45 c18 31 39 52 71 68 74 37 53 53 -35 26 -44 -13 -6 21 44 40 24 9 47
24 50 31 7 20 -23 19 -52 -1 -12 -8 -22 -11 -22 -5 0 11 56 55 83 65 28 9 14
31 -18 29 -26 -2 -27 -1 -10 17 9 10 29 20 44 22 18 2 26 9 26 23 0 21 -6 22
-40 9 -41 -16 8 28 53 47 36 16 42 22 33 33 -7 8 -21 12 -32 9 -14 -4 -18 -2
-13 10 3 9 20 19 37 23 62 13 77 44 22 44 -19 0 -35 5 -35 10 0 6 3 10 8 11
15 1 40 7 61 14 30 9 27 35 -4 35 -14 0 -25 4 -25 10 0 12 45 24 59 16 22 -14
22 17 0 41 l-24 25 48 -7 c52 -8 61 3 27 32 -38 32 -14 42 43 18 12 -5 17 -2
17 10 0 10 -8 24 -17 31 -17 12 -17 14 2 28 17 13 22 13 36 0 23 -21 45 5 30
35 -21 38 12 69 39 36 17 -21 30 -9 30 29 0 29 24 78 32 66 2 -3 8 -14 14 -24
6 -11 16 -22 22 -24 18 -6 15 34 -4 53 -17 16 -13 45 6 45 7 0 9 -8 5 -20 -7
-22 -5 -23 19 -14 10 4 16 18 16 39 0 30 32 85 49 85 8 0 1 -55 -14 -117 -4
-15 -1 -23 8 -23 13 0 47 108 47 150 0 12 4 19 9 15 5 -3 12 -1 16 5 15 24 25
6 25 -46 0 -34 4 -53 10 -49 6 3 10 21 10 40 0 19 9 50 21 69 23 40 34 46 26
16 -3 -11 2 -25 11 -32 10 -8 13 -8 9 -1 -11 17 28 132 54 159 23 24 46 33 33
13 -9 -14 -53 -189 -48 -189 5 0 69 137 85 184 12 34 50 76 69 76 4 0 -6 -46
-21 -102 -16 -56 -29 -111 -29 -122 1 -19 2 -19 14 4 8 14 29 72 47 130 18 58
37 107 41 108 5 2 23 16 40 30 28 23 31 24 24 7 -4 -11 -14 -49 -22 -85 -8
-36 -21 -83 -30 -105 -12 -33 -12 -37 0 -22 8 10 33 67 57 126 32 83 49 112
70 125 39 23 40 21 19 -27 -21 -47 -93 -347 -86 -354 7 -7 23 28 31 67 10 50
73 246 97 302 18 42 50 69 64 55 3 -3 -1 -25 -9 -49 -15 -42 -98 -342 -111
-400 -10 -46 12 -32 24 15 6 23 41 133 77 245 60 185 69 204 96 218 16 9 30
14 32 12 2 -2 -20 -84 -49 -183 -66 -223 -69 -235 -57 -235 12 0 41 77 81 220
46 161 71 216 104 222 14 3 26 3 26 1 0 -3 -16 -56 -35 -117 -49 -156 -94
-320 -90 -324 2 -2 8 -1 14 2 10 6 26 55 114 341 l34 110 36 3 c21 2 37 0 37
-3 0 -3 -25 -79 -56 -168 -97 -281 -104 -311 -75 -293 11 7 122 339 141 424
10 45 15 52 36 52 21 0 24 -3 18 -25 -7 -27 -5 -28 20 -19 19 7 22 34 4 34 -9
0 -9 3 -1 11 6 6 27 9 47 7 l37 -3 -57 -85 c-32 -47 -68 -112 -81 -145 -39
-97 -73 -197 -73 -218 0 -40 24 -8 50 68 49 144 90 238 131 297 21 32 39 65
39 73 0 10 10 15 35 15 l34 0 -36 -77 c-129 -279 -178 -403 -159 -403 7 0 27
33 44 73 17 39 48 113 68 162 34 80 73 157 114 222 20 31 70 45 70 19z m-1224
-431 c-11 -19 -23 -32 -27 -29 -14 8 -11 19 12 48 28 36 38 24 15 -19z m2987
-614 c10 -10 -3 -11 -63 -5 -155 15 -181 23 -62 20 73 -2 117 -7 125 -15z
m160 -444 c29 -13 68 -47 53 -47 -9 0 -102 60 -93 60 4 0 22 -6 40 -13z
m-3974 -1878 c42 -22 81 -46 88 -52 9 -9 43 -258 43 -318 0 -7 -29 29 -65 79
-87 122 -195 212 -255 212 -12 0 -25 -10 -32 -25 -10 -23 -8 -29 20 -58 28
-29 32 -41 41 -127 40 -363 40 -362 92 -530 32 -104 71 -179 115 -223 55 -56
114 -71 114 -31 0 10 -26 43 -57 73 -36 35 -76 89 -106 143 -56 101 -60 122
-77 408 -6 107 -13 204 -16 215 -6 27 86 -73 137 -147 21 -31 49 -64 61 -72
20 -14 21 -19 10 -49 -18 -50 -15 -104 6 -116 14 -8 20 -33 29 -143 7 -73 17
-146 22 -161 6 -15 27 -123 46 -240 20 -116 38 -220 41 -229 9 -32 -24 -20
-73 25 -56 51 -202 272 -253 382 -35 74 -106 298 -129 406 -6 26 -15 89 -21
140 -5 52 -19 151 -31 221 -22 138 -19 170 23 223 45 57 113 56 227 -6z m3990
-1829 c0 -8 -7 1 -14 20 -18 46 -17 64 0 25 8 -16 14 -37 14 -45z m41 -861 c0
-683 4 -829 25 -829 20 0 37 111 49 330 l11 205 58 -83 c68 -95 93 -170 103
-302 7 -94 -8 -259 -33 -355 -38 -151 -152 -418 -244 -570 -136 -226 -350
-463 -524 -581 -233 -159 -486 -249 -730 -261 -432 -21 -843 147 -1250 510
-353 315 -543 584 -666 945 -86 253 -111 489 -67 626 16 50 24 63 29 50 4 -11
14 -107 23 -214 9 -108 20 -209 24 -225 10 -34 48 -47 58 -20 10 24 -15 520
-31 650 -8 61 -17 148 -21 195 l-7 85 50 -45 c28 -25 79 -65 113 -90 35 -25
81 -63 103 -85 22 -22 50 -40 61 -41 12 0 52 -33 94 -75 58 -60 74 -71 82 -59
8 12 15 9 43 -18 19 -18 49 -41 68 -50 25 -12 42 -34 64 -77 l29 -60 6 45 5
45 31 -45 c17 -25 36 -71 43 -102 18 -84 35 -75 27 14 -6 71 -6 72 12 52 31
-33 39 -55 52 -139 19 -119 32 -118 28 3 -1 56 0 102 4 102 18 0 38 -53 53
-145 18 -107 21 -115 36 -115 7 0 9 15 5 38 -3 20 -8 69 -12 109 -6 69 -5 71
15 66 23 -6 26 -14 41 -107 13 -83 37 -186 44 -194 16 -15 18 17 7 110 -7 57
-15 115 -18 131 -4 19 -1 27 8 27 34 -1 42 -22 65 -159 26 -149 37 -191 54
-191 14 0 13 26 -10 178 -11 74 -20 136 -20 138 0 2 11 4 24 4 22 0 26 -6 35
-52 6 -29 13 -75 16 -103 17 -146 39 -214 62 -191 6 6 -21 231 -37 300 -8 35
-7 36 21 36 31 0 28 9 49 -140 16 -109 40 -210 51 -210 14 0 11 83 -6 185 -8
50 -18 105 -21 123 -5 30 -3 32 24 32 l29 0 22 -141 c24 -151 34 -189 51 -189
11 0 9 29 -16 208 -18 129 -18 122 10 122 28 0 28 1 56 -179 21 -139 25 -151
41 -151 13 0 11 58 -6 175 -21 141 -20 165 5 165 11 0 20 -2 20 -5 0 -3 12
-74 26 -158 24 -144 35 -179 50 -164 6 6 -14 185 -33 305 -5 29 -3 32 20 32
24 0 26 -5 42 -92 9 -51 19 -117 22 -146 3 -29 10 -55 15 -58 26 -16 27 20 7
155 -22 144 -20 171 14 158 10 -4 19 -46 32 -139 10 -73 22 -137 26 -142 22
-24 24 19 8 148 -10 77 -16 143 -13 148 3 4 13 8 24 8 15 0 21 -17 36 -121 21
-133 27 -150 45 -132 9 9 8 38 -6 124 -9 62 -19 118 -22 125 -4 12 34 40 43
31 2 -2 12 -56 21 -120 18 -126 25 -149 44 -130 8 8 7 42 -6 139 -16 122 -16
128 1 141 10 7 21 13 25 13 6 0 17 -63 35 -192 4 -31 11 -48 20 -48 19 0 18
66 -1 167 -15 77 -15 78 6 96 12 9 25 17 29 17 4 0 13 -37 19 -82 19 -133 23
-149 35 -145 17 6 18 53 3 155 -13 90 -13 93 8 112 12 11 24 20 27 20 3 0 8
-31 12 -69 7 -77 20 -121 36 -121 13 0 13 77 0 154 -8 51 -7 63 7 78 9 10 19
18 23 18 4 0 13 -40 19 -90 10 -69 16 -90 28 -90 14 0 15 14 9 108 -7 101 -6
108 14 125 20 17 21 16 30 -9 6 -14 10 -30 10 -35 0 -5 7 -9 15 -9 11 0 15 12
15 44 0 58 17 107 30 86 14 -23 43 0 51 39 7 34 29 66 29 43 0 -32 31 -2 89
89 51 78 68 98 82 94 14 -5 24 5 43 42 27 52 83 119 97 116 4 -2 28 28 53 65
24 37 72 99 105 137 34 39 87 103 118 143 30 40 58 71 60 68 2 -2 4 -298 3
-657z m-2753 199 c-3 -7 -5 -2 -5 12 0 14 2 19 5 13 2 -7 2 -19 0 -25z m-547
-438 c-12 -23 -24 -40 -26 -37 -3 3 4 24 16 47 12 23 24 40 26 37 3 -3 -4 -24
-16 -47z m-143 -128 c-39 -82 -74 -147 -75 -146 -16 12 123 294 143 294 3 0
-28 -67 -68 -148z m3633 118 c-11 -20 -30 -28 -30 -12 0 11 22 32 32 32 5 0 4
-9 -2 -20z m56 -45 c-7 -26 -26 -30 -33 -8 -4 12 27 47 34 39 3 -3 2 -17 -1
-31z m74 -33 c0 -14 -31 -52 -51 -62 -29 -16 -25 15 6 45 24 25 45 32 45 17z
m-3704 -55 c-6 -31 -118 -261 -137 -282 -19 -19 -8 13 30 90 21 44 42 91 46
105 28 94 75 161 61 87z m3772 3 c-1 -5 -21 -32 -43 -60 -33 -42 -41 -47 -43
-31 -4 23 55 101 76 101 8 0 12 -4 10 -10z m-4066 -42 c-11 -18 -37 -76 -57
-128 -20 -52 -80 -184 -132 -292 -52 -109 -102 -221 -112 -250 l-18 -53 -12
52 c-7 29 -10 67 -6 85 4 18 46 114 94 213 166 346 173 358 216 387 22 14 42
25 44 23 2 -2 -6 -19 -17 -37z m53 -85 c-6 -80 -12 -105 -35 -143 -15 -25 -49
-94 -74 -155 -59 -141 -240 -498 -255 -503 -23 -8 -11 80 20 147 17 36 40 88
51 116 11 27 30 70 43 95 40 76 201 422 226 483 12 31 25 57 27 57 2 0 1 -44
-3 -97z m4065 61 c0 -14 -114 -146 -118 -136 -5 16 16 50 60 98 37 40 58 54
58 38z m-4294 -106 c-161 -344 -170 -361 -179 -331 -16 56 0 115 73 258 69
135 93 165 132 165 14 0 10 -15 -26 -92z m4296 9 c-11 -12 -38 -51 -61 -86
-26 -40 -41 -57 -41 -45 0 18 15 45 89 159 24 37 26 38 29 17 2 -14 -5 -33
-16 -45z m-4428 -34 c-24 -48 -44 -96 -45 -108 -3 -53 -17 37 -18 113 l-1 82
54 0 53 0 -43 -87z m603 42 c-3 -19 -28 -80 -56 -136 -28 -55 -51 -107 -51
-115 0 -8 -4 -14 -10 -14 -25 0 -15 30 86 248 28 60 39 67 31 17z m4041 -65
c25 -17 33 -28 29 -44 -9 -35 -117 -319 -124 -325 -3 -3 -4 1 -1 10 4 8 9 47
13 85 4 38 18 100 31 137 24 68 32 147 15 147 -4 0 -12 -27 -15 -61 -12 -105
-22 -111 -29 -17 -4 47 -10 100 -13 119 l-7 34 34 -31 c19 -17 49 -41 67 -54z
m-4808 27 c0 -12 -24 -65 -54 -117 -30 -52 -71 -138 -92 -190 -21 -52 -61
-142 -90 -200 -67 -135 -92 -190 -173 -390 -37 -91 -77 -183 -88 -204 -18 -36
-21 -38 -27 -19 -4 12 -13 24 -21 27 -24 9 -18 32 38 129 53 91 144 274 175
352 9 22 26 59 39 82 13 24 51 107 84 185 33 79 72 161 88 183 15 22 46 73 70
113 24 39 45 72 47 72 2 0 4 -10 4 -23z m4630 -12 c0 -19 -34 -87 -70 -140
-15 -22 -37 -60 -49 -83 -12 -24 -25 -42 -27 -39 -14 14 14 85 61 157 30 44
57 89 60 100 7 24 25 27 25 5z m-3859 -137 c-7 -20 -17 -43 -24 -50 -8 -7 -27
-49 -44 -92 -33 -88 -59 -114 -48 -50 6 40 23 83 84 219 35 77 36 78 39 45 2
-19 -1 -52 -7 -72z m-752 21 c1 -37 -117 -323 -273 -659 -69 -148 -129 -289
-177 -417 -54 -147 -55 -148 -64 -65 -6 66 -5 76 19 120 45 80 83 165 160 354
41 101 102 240 135 311 34 70 72 156 85 191 14 35 40 94 60 132 20 37 36 76
37 88 1 19 2 18 9 -4 4 -14 8 -37 9 -51z m4601 -56 c-12 -32 -36 -83 -55 -113
-57 -95 -96 -180 -141 -308 -48 -136 -147 -355 -199 -442 -18 -30 -57 -109
-85 -175 -29 -66 -81 -176 -115 -245 -34 -69 -75 -160 -90 -202 -21 -60 -34
-82 -58 -97 -18 -11 -33 -19 -34 -17 -2 1 3 16 11 32 8 16 33 74 56 129 23 55
59 132 80 170 21 39 52 104 69 145 17 42 63 132 103 200 120 210 248 487 274
595 13 55 52 139 118 254 36 63 69 124 72 135 4 12 9 16 11 9 3 -7 -5 -39 -17
-70z m-4093 12 c-7 -50 -42 -134 -172 -420 -48 -104 -104 -229 -124 -277 -21
-49 -40 -91 -43 -94 -15 -15 -19 103 -5 141 30 80 106 244 198 425 52 102 102
204 111 228 23 58 43 56 35 -3z m235 -178 c-79 -179 -73 -170 -69 -107 2 38
16 83 44 145 22 50 44 99 48 110 7 18 8 18 17 -8 9 -24 3 -45 -40 -140z
m-1007 46 c-7 -30 -226 -507 -281 -613 -18 -36 -36 -74 -39 -84 -5 -18 -7 -18
-30 4 -28 27 -27 42 12 103 14 22 85 160 159 308 115 230 162 309 182 309 2 0
1 -12 -3 -27z m277 -68 c0 -57 -5 -74 -51 -164 -81 -158 -208 -435 -262 -569
-27 -68 -65 -154 -84 -192 -19 -38 -35 -73 -35 -77 0 -14 97 135 123 190 15
32 27 60 27 62 0 23 271 619 291 640 5 5 9 -21 9 -69 0 -71 -3 -83 -34 -135
-63 -105 -127 -232 -207 -413 -96 -216 -122 -269 -183 -368 -46 -75 -64 -132
-30 -98 9 9 31 42 49 74 18 33 37 58 42 57 10 -2 67 91 78 129 9 27 138 324
198 453 47 101 88 175 99 175 3 0 9 -28 13 -63 7 -62 6 -64 -58 -197 -35 -74
-92 -205 -127 -290 -34 -85 -107 -260 -162 -388 -54 -129 -104 -246 -110 -260
l-10 -27 -13 35 c-20 51 -18 75 9 128 13 26 40 91 60 145 20 55 46 121 57 149
10 27 15 47 10 44 -14 -9 -57 -87 -70 -129 -7 -20 -16 -35 -21 -32 -4 2 -10
-8 -13 -23 -7 -37 -48 -144 -53 -140 -2 2 -8 45 -14 95 -5 49 -16 108 -24 129
-19 55 0 152 50 252 21 43 54 120 75 172 20 52 60 147 89 210 29 63 74 165
100 225 27 61 73 162 104 225 31 63 56 122 56 130 1 12 3 11 11 -3 6 -10 11
-47 11 -82z m528 35 c0 -16 -4 -30 -10 -30 -5 0 -10 14 -10 30 0 17 5 30 10
30 6 0 10 -13 10 -30z m3921 3 c-8 -15 -10 -15 -11 -2 0 17 10 32 18 25 2 -3
-1 -13 -7 -23z m-3694 -119 c-24 -54 -49 -110 -55 -124 -11 -25 -11 -25 -11 7
-1 31 11 61 76 201 47 101 38 26 -10 -84z m-1270 -155 c-115 -227 -143 -276
-151 -260 -6 15 19 75 118 274 118 239 133 264 162 266 7 1 -52 -125 -129
-280z m33 257 c0 -16 -154 -335 -174 -361 -15 -19 -15 -19 -16 11 0 34 107
269 147 322 20 27 43 42 43 28z m5009 -63 c-51 -158 -58 -176 -59 -157 0 28
64 214 74 214 2 0 -4 -26 -15 -57z m-5127 -10 c-15 -32 -64 -132 -109 -223
-44 -91 -93 -198 -107 -239 -28 -78 -47 -117 -170 -351 -42 -80 -115 -224
-162 -320 l-86 -174 -19 39 c-10 22 -18 48 -19 58 0 9 45 101 100 205 141 265
463 915 490 989 22 62 31 70 82 72 l27 1 -27 -57z m-92 44 c0 -5 -456 -916
-499 -997 -22 -41 -56 -109 -74 -150 l-34 -75 -21 49 c-12 27 -22 53 -22 58 0
6 15 31 33 57 76 105 399 727 482 926 35 86 46 103 76 117 30 16 59 23 59 15z
m1244 -34 c2 -10 8 -34 11 -53 10 -50 80 -263 95 -286 11 -17 9 -30 -8 -75
l-20 -54 -11 45 c-7 25 -23 85 -36 133 -14 48 -25 101 -25 116 0 16 -7 45 -15
64 -17 40 -20 127 -6 127 5 0 12 -8 15 -17z m251 -98 c-17 -33 -40 -82 -50
-110 -25 -67 -35 -77 -35 -32 0 25 18 75 51 145 45 94 53 104 59 82 5 -19 -1
-40 -25 -85z m-376 -34 c-12 -31 -41 -97 -65 -148 -23 -50 -45 -101 -49 -112
-3 -12 -11 -19 -16 -16 -5 4 -9 2 -9 -4 0 -18 -102 -271 -111 -277 -22 -13 -4
51 55 200 55 137 147 352 197 461 l14 30 3 -39 c2 -23 -6 -61 -19 -95z m4165
81 c-23 -120 -170 -498 -281 -717 -36 -72 -174 -287 -180 -281 -5 5 42 107
137 296 117 234 211 454 293 686 24 66 42 76 31 16z m-5454 -23 c-31 -78 -259
-529 -388 -767 l-115 -214 -20 32 c-18 28 -19 35 -7 54 8 11 33 55 55 96 162
293 223 405 260 475 23 44 47 89 53 100 34 61 92 187 92 199 0 17 59 76 77 76
9 0 8 -13 -7 -51z m1740 -72 c0 -11 -11 -44 -25 -73 -14 -29 -32 -78 -40 -110
-18 -69 -22 -75 -41 -49 -19 25 -12 65 28 165 16 41 34 86 40 100 9 24 10 24
24 5 8 -10 14 -28 14 -38z m-1876 16 c-10 -39 -73 -164 -164 -323 -42 -74
-119 -217 -171 -317 -52 -101 -97 -183 -100 -183 -4 0 -9 10 -12 22 -5 16 8
49 40 108 60 110 106 196 158 295 23 44 64 118 90 165 59 103 85 156 85 169 0
10 68 91 76 91 3 0 1 -12 -2 -27z m1470 -28 c10 -61 -17 -138 -116 -334 -68
-135 -78 -151 -79 -121 -1 32 -2 32 -9 -10 -10 -60 -52 -165 -65 -163 -22 5
-15 50 21 127 21 45 48 108 61 141 19 51 22 56 23 30 1 -16 4 -23 6 -15 3 8
14 44 26 79 11 35 36 96 54 135 19 39 40 97 46 128 6 31 15 55 19 53 4 -3 10
-25 13 -50z m3951 -125 c-35 -119 -40 -130 -214 -485 -82 -165 -163 -331 -181
-368 -34 -69 -59 -100 -45 -56 9 27 140 301 223 464 125 247 161 325 196 433
21 62 40 111 43 109 2 -3 -8 -46 -22 -97z m-5562 53 c-25 -62 -71 -149 -115
-221 -23 -37 -81 -148 -129 -247 -49 -99 -94 -180 -99 -180 -6 0 -19 12 -27
27 -16 25 -15 28 24 90 22 34 64 108 93 163 77 148 246 405 266 405 2 0 -4
-17 -13 -37z m2041 10 c-9 -39 -96 -234 -102 -228 -5 4 99 255 105 255 2 0 1
-12 -3 -27z m-1599 -147 c-13 -29 -19 -35 -29 -27 -11 9 -9 21 13 61 21 41 27
46 29 27 2 -12 -4 -40 -13 -61z m1655 38 c0 -7 -5 -16 -10 -19 -14 -9 -47 -74
-66 -132 -21 -64 -31 -72 -39 -33 -5 24 0 46 23 93 17 34 38 80 47 102 15 38
17 39 31 21 8 -11 14 -25 14 -32z m-424 -93 c12 -49 11 -57 -5 -80 -30 -45
-92 -159 -187 -349 -82 -166 -92 -180 -97 -153 -4 17 0 47 7 68 36 99 139 314
200 417 25 43 46 87 46 98 0 35 -24 5 -65 -80 -20 -42 -45 -86 -55 -97 -19
-20 -85 -145 -130 -245 -24 -54 -25 -54 -28 -23 -2 21 9 56 34 105 20 40 40
75 43 78 4 3 13 20 20 37 7 18 17 31 21 28 5 -3 16 18 25 46 10 29 43 104 73
167 l55 116 15 -40 c8 -21 20 -63 28 -93z m463 31 c11 -25 6 -39 -42 -140
l-53 -112 -13 35 c-7 19 -9 45 -6 58 11 38 90 195 96 191 4 -2 12 -16 18 -32z
m-284 -110 c-3 -13 -17 -41 -31 -61 l-24 -36 0 45 c1 25 7 56 15 70 7 14 11
38 8 55 -5 29 -4 28 17 -9 14 -26 19 -47 15 -64z m-1441 15 l16 -68 -44 -77
c-81 -143 -220 -406 -321 -607 -56 -110 -105 -199 -110 -198 -5 1 -13 15 -17
32 -10 38 34 142 156 366 108 199 258 503 282 572 10 29 19 51 20 50 2 -1 10
-33 18 -70z m-631 31 c-12 -13 -58 -96 -102 -186 l-82 -164 -25 38 -25 37 22
24 c13 13 42 58 64 101 31 58 57 89 100 125 64 51 80 60 48 25z m1427 -59 c12
-56 12 -57 -17 -100 -17 -24 -69 -129 -117 -234 -48 -104 -98 -212 -111 -240
-13 -27 -54 -122 -91 -210 -37 -88 -81 -182 -98 -210 -16 -27 -35 -70 -42 -95
l-13 -45 0 40 c-1 22 -4 57 -8 78 -5 34 -4 38 13 35 23 -4 77 92 123 220 17
45 40 101 52 124 32 62 177 415 199 483 7 22 30 76 52 119 21 44 38 87 39 95
1 20 3 11 19 -60z m996 15 c17 -24 16 -28 -31 -127 -27 -56 -51 -106 -55 -110
-4 -4 -14 3 -23 17 -16 23 -15 28 28 119 25 52 45 102 45 111 0 24 17 19 36
-10z m-2831 -4 c3 -5 15 -10 26 -10 15 0 19 -7 19 -30 0 -43 -23 -48 -64 -14
-39 32 -44 50 -18 57 28 8 31 7 37 -3z m2339 -39 l16 -49 -45 -74 c-25 -40
-64 -131 -89 -203 -60 -173 -79 -217 -83 -189 -2 11 3 54 12 95 27 119 27 129
6 84 -11 -22 -20 -46 -20 -53 -1 -7 -15 -33 -32 -58 -16 -24 -35 -58 -41 -74
-10 -31 -22 -38 -33 -20 -4 6 9 28 28 49 19 21 46 70 61 110 16 39 34 77 40
84 7 7 19 30 26 52 7 22 39 91 71 152 33 62 59 119 59 128 0 27 7 16 24 -34z
m-2434 23 c0 -19 -46 -103 -101 -185 -21 -31 -56 -93 -79 -138 -22 -44 -43
-81 -46 -81 -2 0 -27 15 -54 34 -27 19 -55 36 -62 39 -9 3 -3 16 18 38 17 19
68 89 113 156 45 67 89 127 97 134 28 23 26 -1 -3 -48 -17 -26 -43 -70 -58
-98 -15 -27 -47 -80 -71 -116 -47 -71 -53 -89 -29 -89 8 0 36 33 62 73 25 39
75 116 110 169 34 54 63 102 63 107 0 9 16 18 33 20 4 1 7 -6 7 -15z m2584
-90 c-28 -81 -44 -92 -44 -31 0 31 62 147 68 128 2 -7 -8 -51 -24 -97z m-2247
24 c-24 -36 -50 -79 -58 -96 -17 -38 -31 -40 -53 -7 -15 23 -14 26 23 69 22
25 42 55 46 66 3 11 18 23 33 26 15 3 32 7 37 9 19 5 16 -4 -28 -67z m-86 52
c18 0 18 -1 2 -18 -10 -10 -27 -35 -38 -57 -11 -22 -21 -42 -22 -44 -2 -2 -12
4 -23 14 -22 20 -25 50 -10 91 9 23 14 26 41 20 18 -3 40 -6 50 -6z m-202 -58
l20 -28 -23 -30 c-28 -37 -137 -215 -165 -271 -26 -52 -37 -59 -61 -38 -23 21
-20 29 50 135 84 125 128 201 136 233 8 34 18 34 43 -1z m2942 7 c10 -19 3
-38 -47 -136 -58 -114 -58 -114 -72 -87 -13 25 -11 33 40 135 29 60 56 109 60
109 4 0 12 -10 19 -21z m5737 -46 c23 -14 42 -27 42 -29 0 -2 -17 -39 -38 -82
-21 -42 -58 -126 -82 -187 -38 -94 -52 -117 -97 -161 -29 -28 -53 -48 -53 -44
0 4 23 61 51 126 124 290 153 374 131 374 -5 0 -17 -11 -26 -25 -20 -30 -135
-304 -202 -479 -38 -100 -59 -140 -91 -175 l-42 -46 8 36 c5 20 12 42 16 48 4
7 24 58 45 114 21 56 59 154 83 217 97 246 137 354 137 368 0 11 9 9 38 -9 20
-12 56 -33 80 -46z m-6068 11 c0 -12 -7 -37 -15 -57 -8 -19 -19 -57 -25 -84
-16 -73 -21 -82 -30 -58 -14 34 -11 89 9 147 28 82 41 104 52 87 5 -8 9 -24 9
-35z m-1476 -74 c-7 -9 -25 -42 -40 -75 -15 -33 -63 -125 -107 -205 -44 -80
-111 -208 -150 -285 -38 -77 -95 -183 -126 -235 l-56 -95 -3 40 c-3 35 15 76
126 295 71 140 142 278 159 305 17 28 64 116 104 197 l72 148 17 -38 c14 -31
15 -40 4 -52z m786 -37 c0 -13 -14 -45 -30 -72 -42 -68 -166 -346 -235 -526
-32 -82 -83 -206 -115 -275 -31 -69 -69 -152 -84 -184 -14 -32 -28 -57 -31
-55 -2 3 -9 35 -15 72 -9 56 -8 71 5 90 8 13 13 26 9 29 -3 3 26 66 65 140 38
73 79 158 91 188 12 30 43 102 69 160 27 58 59 131 72 164 13 32 53 117 87
190 35 72 69 144 74 160 l11 30 13 -45 c8 -24 14 -54 14 -66z m-1849 55 c13
-18 36 -46 52 -64 15 -17 27 -34 27 -37 0 -3 -32 -50 -71 -104 -39 -54 -84
-124 -101 -157 l-29 -58 -29 27 -29 28 28 36 c44 56 147 225 160 261 14 40 14
40 0 40 -15 0 -45 -37 -70 -85 -52 -101 -135 -235 -145 -235 -6 0 -19 9 -28
19 -16 18 -16 21 14 54 17 19 49 68 71 109 23 40 57 101 76 136 19 34 38 62
42 62 5 0 19 -14 32 -32z m2936 1 c16 -26 14 -29 -49 -133 l-65 -106 -14 31
c-12 30 -10 37 42 135 30 57 58 103 62 101 5 -1 16 -14 24 -28z m-578 -40 l13
-46 -100 -199 c-105 -207 -140 -283 -174 -371 -10 -29 -23 -53 -28 -53 -20 0
-18 37 5 89 22 49 49 123 129 346 11 33 24 63 28 66 5 3 10 18 12 35 7 56 83
202 97 186 3 -4 12 -28 18 -53z m226 21 c19 -36 14 -58 -33 -160 l-35 -75 -13
33 c-13 30 -12 36 11 82 14 27 30 72 36 100 6 27 12 50 15 50 2 0 10 -13 19
-30z m6191 -30 c54 -27 98 -53 97 -56 -2 -7 -100 -44 -116 -44 -5 0 -6 7 -3
16 3 8 2 12 -4 9 -6 -3 -10 -12 -10 -18 -1 -7 -39 -43 -86 -80 -97 -78 -96
-83 -28 90 24 62 44 117 44 123 0 14 -5 16 106 -40z m-5756 -63 c0 -5 -28 -54
-61 -109 -59 -95 -62 -98 -80 -82 -11 9 -19 24 -19 32 0 8 25 61 56 119 l57
105 23 -28 c13 -15 24 -32 24 -37z m-375 3 c14 -27 14 -33 -2 -72 -9 -24 -25
-56 -34 -73 -10 -16 -23 -49 -30 -72 -7 -24 -15 -43 -19 -43 -3 0 -11 18 -16
39 -10 36 -8 46 23 108 18 37 38 85 45 106 6 20 13 37 14 37 2 0 10 -13 19
-30z m-2514 -62 c8 -15 5 -23 -14 -38 -13 -10 -56 -73 -96 -139 -39 -67 -75
-121 -79 -121 -14 0 -32 24 -32 42 0 10 42 80 93 156 95 143 102 149 128 100z
m2289 -37 c7 -27 6 -39 -9 -60 -26 -38 -170 -307 -243 -453 -34 -71 -66 -128
-69 -128 -4 0 -9 14 -13 32 -5 24 1 44 20 82 15 28 38 80 51 116 26 68 76 176
171 368 50 100 58 111 69 95 7 -9 17 -33 23 -52z m659 43 l20 -26 -23 -32
c-13 -17 -38 -60 -55 -96 -45 -89 -54 -98 -74 -67 -16 24 -14 29 41 136 31 61
60 111 64 111 3 0 16 -12 27 -26z m-379 -50 c0 -13 -4 -25 -9 -28 -4 -3 -25
-53 -46 -111 -20 -58 -41 -105 -45 -105 -4 0 -11 12 -14 26 -5 18 4 50 33 112
22 48 43 105 47 126 6 36 8 38 20 21 8 -10 14 -29 14 -41z m-2519 -16 c23 -28
24 -42 4 -58 -21 -18 -122 -163 -142 -205 -18 -37 -42 -45 -63 -20 -10 13 -3
30 46 105 33 49 74 114 92 145 18 30 36 55 39 55 2 0 13 -10 24 -22z m2939 17
c0 -24 -118 -221 -126 -212 -3 3 9 25 25 49 17 24 42 72 57 106 15 34 31 62
35 62 5 0 9 -2 9 -5z m55 -45 c16 -18 17 -22 2 -37 -19 -22 -107 -197 -107
-214 0 -7 -11 -3 -24 10 l-25 23 62 119 c34 65 65 119 68 119 3 0 14 -9 24
-20z m-421 -9 c16 -18 15 -24 -27 -117 -85 -190 -90 -197 -100 -146 -4 19 8
59 44 139 27 61 49 119 49 127 0 21 13 20 34 -3z m-299 -47 c23 -55 19 -72
-35 -164 -28 -47 -100 -183 -160 -302 -61 -119 -115 -220 -120 -223 -14 -8
-23 40 -17 83 4 20 46 113 94 207 48 93 116 229 152 302 37 72 67 132 68 132
2 1 10 -15 18 -35z m3207 -11 c-11 -21 -45 -102 -76 -181 -82 -209 -148 -323
-173 -298 -3 3 10 41 30 83 19 43 59 132 87 198 44 103 136 252 148 241 2 -2
-5 -21 -16 -43z m-5418 11 c18 -26 18 -26 -11 -57 -33 -36 -143 -202 -143
-217 0 -16 -16 -11 -35 10 -17 19 -15 23 71 155 49 74 91 135 94 135 3 0 13
-12 24 -26z m3001 -43 c-4 -14 -25 -57 -48 -95 -23 -39 -48 -83 -56 -98 -16
-33 -27 -35 -41 -8 -9 16 1 41 50 141 60 119 61 121 81 103 14 -13 18 -25 14
-43z m-416 4 l21 -35 -49 -98 c-45 -89 -79 -167 -96 -217 -6 -18 -7 -18 -16
-3 -5 9 -13 37 -18 62 -8 43 -5 52 61 186 38 77 71 140 73 140 1 0 12 -16 24
-35z m-744 -118 c-38 -120 -55 -139 -55 -62 0 29 12 74 33 123 l32 77 3 -43
c2 -24 -4 -67 -13 -95z m1223 90 l22 -24 -60 -122 c-55 -109 -63 -120 -80
-111 -10 6 -22 14 -25 20 -3 5 19 61 50 125 30 63 55 120 55 125 0 17 15 11
38 -13z m-3014 -24 l26 -37 -23 -26 c-30 -33 -121 -158 -137 -189 l-13 -25
-29 33 -30 33 30 32 c36 39 114 152 130 189 6 15 14 27 16 27 3 0 17 -17 30
-37z m2216 -118 c-10 -16 -21 -41 -25 -55 -4 -14 -36 -74 -70 -135 -80 -140
-134 -249 -174 -350 -17 -44 -40 -91 -50 -104 l-19 -25 -7 66 c-7 64 -6 68 29
128 20 33 36 63 36 66 0 15 222 453 235 464 13 10 15 9 15 -9 0 -14 4 -20 11
-15 6 4 8 21 5 43 l-6 36 19 -40 c19 -39 19 -41 1 -70z m398 60 c12 -19 22
-39 22 -45 0 -20 -192 -390 -202 -390 -7 0 -9 27 -6 78 5 68 13 96 74 234 38
87 74 158 79 158 6 0 20 -16 33 -35z m482 15 c25 -19 25 -19 7 -47 -10 -15
-38 -70 -62 -121 l-45 -93 -25 17 c-26 17 -31 29 -16 38 5 3 31 56 57 116 26
61 50 110 53 110 3 0 17 -9 31 -20z m-3036 -54 l19 -36 -72 -108 c-39 -59 -71
-111 -71 -115 0 -4 9 -3 19 2 23 13 80 89 114 152 l24 47 17 -34 c22 -46 22
-47 -23 -112 -21 -31 -48 -76 -59 -99 -12 -23 -26 -44 -31 -47 -5 -3 -36 31
-70 76 l-61 81 40 44 c48 51 120 160 120 180 0 21 13 9 34 -31z m5120 -33
c-63 -172 -111 -277 -142 -313 -18 -22 -37 -40 -42 -40 -5 0 10 42 32 93 22
50 54 127 70 171 19 52 41 91 66 117 20 21 38 38 39 39 1 0 -9 -30 -23 -67z
m-2000 18 c16 -18 16 -21 -13 -68 -16 -27 -44 -79 -61 -116 -28 -58 -34 -66
-50 -57 -11 6 -21 14 -24 19 -9 13 103 241 118 241 7 0 21 -9 30 -19z m-464
-76 c0 -5 -10 -26 -21 -45 -12 -19 -48 -87 -80 -152 -32 -64 -74 -142 -94
-175 -19 -32 -35 -70 -35 -85 0 -45 -18 -41 -39 7 -31 70 -31 79 4 79 22 1 31
6 33 21 2 11 37 90 77 175 40 85 81 174 91 198 l18 42 23 -27 c12 -16 22 -32
23 -38z m555 16 c4 -7 -84 -203 -113 -250 -1 -3 -13 5 -25 17 l-23 22 58 120
c53 108 61 119 78 110 10 -6 21 -14 25 -19z m-985 -29 c0 -13 -4 -20 -10 -17
-5 3 -10 21 -10 38 0 24 3 28 10 17 5 -8 10 -25 10 -38z m2761 -29 c-10 -27
-33 -84 -51 -128 -45 -115 -78 -171 -107 -184 -14 -7 -28 -10 -30 -7 -3 2 8
26 24 53 29 50 87 175 105 228 8 24 62 85 75 85 1 0 -6 -21 -16 -47z m-1703
12 l22 -16 -25 -37 c-13 -20 -40 -74 -61 -119 -34 -77 -38 -82 -58 -71 -11 6
-22 12 -24 13 -1 1 16 42 39 91 22 49 47 104 55 122 17 37 21 38 52 17z
m-1113 -38 c5 -27 -3 -49 -47 -127 -71 -125 -156 -291 -214 -417 -26 -56 -50
-100 -55 -98 -18 11 -21 66 -5 84 9 10 41 74 70 143 43 99 192 401 222 449 9
16 23 0 29 -34z m536 27 c16 -15 15 -20 -23 -87 -22 -40 -55 -104 -74 -143
-18 -40 -61 -119 -94 -178 -33 -58 -60 -113 -60 -121 0 -30 -18 -14 -25 21 -5
31 -1 44 34 97 22 34 74 135 116 225 75 162 96 202 104 202 2 0 12 -7 22 -16z
m658 -38 c9 -11 7 -22 -10 -50 -12 -20 -36 -71 -55 -114 -18 -42 -38 -77 -44
-76 -26 3 -30 5 -30 18 0 7 12 40 26 72 74 168 85 183 113 150z m1450 -157
c-58 -136 -93 -189 -124 -189 -10 0 -6 19 17 73 17 39 46 108 64 152 24 59 41
86 66 103 18 13 34 19 36 14 1 -5 -25 -74 -59 -153z m-2545 129 c9 -36 7 -41
-9 -28 -16 13 -21 50 -6 50 5 0 11 -10 15 -22z m1175 -12 c9 -11 1 -37 -39
-120 -27 -59 -50 -111 -50 -116 0 -14 -23 -12 -43 3 -16 11 -13 21 35 129 53
118 70 136 97 104z m-1222 -84 c3 -12 1 -28 -5 -35 -5 -6 -60 -112 -122 -234
-61 -123 -131 -252 -156 -289 -24 -36 -44 -75 -44 -86 0 -27 3 -23 40 43 37
67 38 53 4 -43 -25 -71 -63 -131 -51 -81 2 12 -1 50 -8 84 l-13 62 34 51 c18
28 53 98 77 156 55 130 149 330 184 389 24 42 27 43 40 25 8 -10 16 -29 20
-42z m1307 49 l25 -10 -59 -113 c-32 -62 -62 -114 -67 -115 -4 -2 -14 1 -22 6
-11 7 -7 26 24 102 20 52 41 104 46 117 9 25 16 26 53 13z m1166 -121 c-32
-71 -67 -143 -77 -160 -16 -28 -57 -50 -69 -37 -3 3 9 34 27 68 18 35 44 98
59 139 24 64 33 78 66 97 22 13 42 23 46 23 3 0 -20 -58 -52 -130z m-1089 37
c-55 -125 -91 -197 -99 -197 -5 0 -15 6 -21 14 -10 12 -1 38 43 131 51 107 57
115 75 105 20 -10 20 -11 2 -53z m950 -110 c-53 -111 -76 -150 -96 -159 -14
-6 -28 -8 -32 -5 -3 4 8 37 25 74 71 158 82 184 82 196 0 11 80 49 88 42 1 -1
-29 -68 -67 -148z m-841 127 c8 -4 -109 -244 -118 -244 -4 0 -14 5 -22 10 -12
7 -13 14 -3 37 92 223 86 212 113 206 14 -3 27 -7 30 -9z m89 -23 c11 -7 2
-31 -44 -122 -32 -63 -61 -117 -64 -122 -4 -4 -16 -1 -26 7 -18 13 -17 18 34
130 54 115 66 128 100 107z m645 -108 c-76 -163 -78 -167 -116 -175 -43 -8
-46 -4 -21 30 29 39 73 127 93 187 14 42 22 52 51 62 19 7 37 12 41 12 4 1
-18 -52 -48 -116z m-528 85 c1 -2 -25 -59 -58 -126 -58 -118 -62 -123 -87
-117 -14 4 -27 8 -29 10 -2 2 14 41 36 87 21 46 45 100 52 122 12 37 14 38 47
33 20 -4 37 -8 39 -9z m-1572 -64 l6 -39 -14 30 c-7 17 -17 41 -21 55 -7 22
-6 23 8 8 9 -8 18 -33 21 -54z m2036 60 c0 -3 -30 -64 -66 -135 -52 -102 -71
-130 -90 -135 -38 -10 -40 2 -11 54 32 55 81 155 96 195 8 21 17 27 41 27 16
0 30 -3 30 -6z m-350 -9 c0 -3 -15 -29 -34 -58 -19 -28 -47 -82 -61 -119 -25
-62 -30 -68 -55 -68 -40 0 -44 13 -17 54 14 19 39 71 57 115 l32 81 39 0 c22
0 39 -2 39 -5z m42 -1 c3 -3 -9 -40 -26 -82 -18 -42 -38 -98 -45 -124 -12 -42
-35 -67 -49 -53 -12 12 91 265 107 265 4 0 10 -2 13 -6z m58 -112 c-28 -62
-50 -116 -50 -121 0 -12 -29 -41 -41 -41 -14 0 -11 47 4 62 8 7 12 19 9 26 -2
6 1 12 6 12 5 0 17 30 26 68 10 37 20 75 22 84 4 13 53 29 71 22 2 0 -20 -51
-47 -112z m148 111 c-100 -214 -146 -288 -166 -269 -4 5 67 193 95 249 10 21
21 27 44 27 17 0 29 -3 27 -7z m2891 -809 c-12 -63 -27 -122 -34 -131 -13 -18
-10 3 30 192 9 39 16 84 17 100 1 24 2 22 5 -9 3 -21 -6 -90 -18 -152z m-6862
-286 c-3 -8 -6 -5 -6 6 -1 11 2 17 5 13 3 -3 4 -12 1 -19z"/>
<path d="M4542 9713 c-15 -48 -8 -55 8 -8 7 20 10 38 8 41 -3 2 -10 -13 -16
-33z"/>
<path d="M5600 9679 c-32 -45 -15 -49 28 -6 33 33 34 37 15 37 -13 0 -31 -13
-43 -31z"/>
<path d="M3716 9573 c-4 -16 -9 -36 -12 -45 -3 -10 -1 -18 4 -18 7 0 32 64 32
84 0 18 -19 2 -24 -21z"/>
<path d="M5640 7583 c-68 -8 -306 -54 -360 -69 -85 -25 -103 -38 -152 -111
-100 -149 -100 -184 0 -78 36 39 58 59 49 45 -43 -67 -68 -112 -64 -116 2 -2
24 4 48 15 24 10 71 24 104 31 33 6 103 25 155 40 322 98 423 106 788 61 34
-4 62 -4 62 0 0 25 -218 143 -319 173 -52 15 -215 20 -311 9z m285 -77 c90
-14 160 -34 151 -43 -2 -2 -21 0 -43 6 -21 6 -90 18 -153 27 -63 8 -116 17
-119 19 -9 9 76 4 164 -9z"/>
<path d="M5103 7442 c-40 -33 -122 -177 -92 -162 10 6 41 44 69 85 27 40 54
76 60 80 12 7 14 25 3 25 -5 0 -22 -13 -40 -28z"/>
<path d="M4997 7368 c-28 -38 -43 -78 -28 -78 5 0 13 10 17 23 3 12 16 35 26
50 29 40 15 45 -15 5z"/>
<path d="M6600 7348 c0 -7 44 -55 97 -108 70 -68 98 -90 101 -78 2 10 -31 50
-88 107 -89 89 -110 104 -110 79z"/>
<path d="M3455 7265 c-38 -8 -110 -19 -159 -25 -108 -13 -179 -47 -256 -123
-45 -46 -90 -111 -90 -134 0 -4 19 11 43 33 70 67 207 166 207 150 0 -2 -34
-30 -75 -60 -81 -61 -163 -149 -183 -196 -16 -39 0 -39 38 -2 36 36 150 96
242 128 132 45 213 54 469 54 131 0 239 4 239 9 0 4 -18 21 -40 36 -22 15 -40
29 -40 31 0 2 29 -11 65 -28 130 -64 81 8 -64 94 -25 15 -40 28 -34 28 15 0
102 -52 162 -97 24 -18 53 -33 65 -33 17 0 12 9 -29 51 -81 83 -110 92 -315
95 -119 2 -197 -2 -245 -11z m78 -76 c20 -11 37 -21 37 -24 0 -4 -111 44 -120
53 -9 9 45 -11 83 -29z m-291 -89 c-41 -17 -94 -42 -118 -56 -61 -36 -55 -22
10 20 59 40 118 64 156 65 15 0 -4 -11 -48 -29z"/>
<path d="M5560 7229 c-168 -11 -271 -67 -392 -211 -35 -42 -37 -48 -19 -48 11
0 55 29 98 65 81 68 153 108 213 119 32 6 30 4 -18 -20 -55 -29 -108 -71 -235
-190 -113 -104 -96 -129 56 -81 67 22 75 22 84 8 8 -13 34 -17 134 -19 207 -6
365 22 507 90 54 26 71 30 117 25 98 -10 239 33 209 63 -10 10 -140 -13 -173
-30 -9 -5 -38 11 -80 43 -77 58 -84 64 -54 48 27 -14 63 -15 63 -1 0 28 -115
97 -200 120 -63 17 -210 26 -310 19z m322 -170 c37 -18 68 -37 68 -43 0 -23
-141 -98 -156 -84 -2 3 1 19 7 37 6 18 9 52 5 77 -3 24 -3 44 1 44 3 0 37 -14
75 -31z m-452 -57 c0 -21 7 -48 16 -60 9 -13 13 -26 9 -30 -4 -4 -47 -9 -97
-11 -77 -3 -89 -1 -82 11 12 20 134 128 145 128 5 0 9 -17 9 -38z"/>
<path d="M6676 7174 c68 -77 104 -102 104 -71 0 24 -127 137 -155 137 -4 0 19
-30 51 -66z"/>
<path d="M4020 7222 c0 -13 75 -82 90 -82 8 0 0 15 -21 36 -36 38 -69 60 -69
46z"/>
<path d="M4944 7093 c-20 -20 -51 -66 -68 -102 -28 -59 -31 -76 -31 -156 1
-69 5 -99 20 -129 36 -71 43 -58 41 81 l-1 128 52 108 c57 116 53 136 -13 70z"/>
<path d="M4170 6987 c0 -7 21 -33 46 -57 97 -95 131 -176 151 -364 5 -48 13
-81 20 -84 24 -7 35 51 31 163 -4 128 -28 192 -98 269 -56 61 -150 107 -150
73z"/>
<path d="M3615 6954 c-103 -21 -168 -40 -210 -62 -124 -62 -185 -131 -185
-210 0 -53 -39 -93 -120 -123 -63 -23 -68 -27 -48 -47 19 -19 41 -14 128 29
45 23 89 39 98 36 9 -3 35 -13 57 -21 47 -18 194 -21 281 -6 32 6 109 26 169
45 163 50 245 72 295 82 36 7 45 12 43 28 -1 11 -8 23 -15 28 -7 4 -51 30 -98
58 -123 74 -132 79 -207 94 l-68 15 62 -5 c34 -2 101 -18 149 -35 97 -33 165
-41 144 -15 -21 26 -112 72 -184 94 -52 16 -92 21 -170 20 -55 -1 -110 -3
-121 -5z m-231 -145 c-27 -17 -65 -45 -84 -62 -33 -30 -33 -30 -10 -3 27 30
118 96 134 96 6 0 -12 -14 -40 -31z m611 -85 c0 -8 -106 -52 -130 -53 -6 -1
-10 27 -10 63 l0 63 70 -32 c39 -17 70 -36 70 -41z m-481 -84 l26 -40 -79 0
c-157 0 -174 41 -52 131 l66 48 6 -50 c4 -28 18 -67 33 -89z"/>
<path d="M5230 6050 c0 -6 12 -33 26 -61 28 -56 40 -129 30 -181 -3 -19 -22
-53 -42 -76 -28 -33 -32 -43 -21 -48 42 -16 120 60 136 134 21 101 -44 242
-113 242 -9 0 -16 -5 -16 -10z"/>
<path d="M4203 5988 c-69 -75 -101 -218 -69 -303 22 -55 76 -105 116 -105 17
0 30 5 30 10 0 6 -16 33 -35 61 -31 45 -55 104 -55 135 0 6 14 55 30 109 17
54 30 101 30 106 0 17 -26 9 -47 -13z"/>
<path d="M5002 5784 c-53 -26 -116 -89 -125 -125 -3 -12 1 -23 13 -29 15 -8
30 -4 66 20 26 16 74 39 108 50 91 31 130 53 134 74 6 27 -15 36 -84 36 -45 0
-73 -7 -112 -26z"/>
<path d="M5703 5774 c-9 -23 21 -44 177 -122 165 -82 188 -108 213 -248 17
-92 29 -116 48 -97 14 14 14 148 0 200 -13 48 -62 124 -101 157 -32 27 -275
126 -309 126 -12 0 -24 -7 -28 -16z"/>
<path d="M4318 5729 c-29 -16 -22 -52 15 -76 17 -11 66 -28 107 -36 41 -9 100
-27 130 -41 54 -26 120 -35 120 -17 0 20 -109 104 -184 141 -81 41 -150 52
-188 29z"/>
<path d="M5080 5603 c0 -22 59 -174 105 -270 43 -90 58 -113 74 -113 25 0 25
2 5 69 -31 106 -146 321 -171 321 -7 0 -13 -3 -13 -7z"/>
<path d="M5150 5602 c0 -6 6 -23 14 -39 8 -15 28 -63 45 -106 48 -125 136
-255 158 -233 13 13 -92 246 -149 331 -30 45 -68 71 -68 47z"/>
<path d="M5020 5593 c0 -4 9 -37 20 -71 28 -88 25 -94 -11 -26 -53 103 -85
114 -56 20 23 -71 21 -80 -4 -29 -38 78 -60 79 -39 3 l9 -35 -34 40 c-18 22
-37 36 -42 32 -18 -19 56 -225 107 -298 41 -56 75 -21 60 62 -12 65 -4 60 19
-13 11 -34 20 -57 20 -50 1 9 7 9 24 -3 32 -21 37 -12 21 42 -11 37 -11 43 -1
34 8 -6 22 -26 32 -46 21 -37 43 -51 58 -36 17 17 -141 370 -170 379 -7 2 -13
0 -13 -5z"/>
<path d="M5240 5597 c0 -30 150 -324 173 -339 20 -13 37 -9 37 8 0 18 -94 198
-146 282 -19 28 -41 52 -49 52 -8 0 -15 -1 -15 -3z"/>
<path d="M5330 5588 c0 -24 51 -143 99 -233 35 -65 56 -93 74 -99 15 -6 30 -7
33 -3 4 4 -5 39 -19 79 -15 40 -29 93 -32 118 -6 40 -2 35 35 -50 41 -95 72
-140 97 -140 17 0 17 -2 -12 76 -40 107 -85 181 -122 201 -18 9 -35 14 -39 10
-4 -4 0 -32 8 -62 8 -30 14 -55 12 -55 -2 0 -13 19 -25 43 -40 78 -109 151
-109 115z"/>
<path d="M5700 5564 c0 -9 13 -39 30 -65 27 -44 60 -114 60 -126 0 -3 -18 21
-39 53 -22 33 -49 69 -61 82 -21 22 -60 30 -60 12 0 -17 92 -164 117 -188 13
-12 21 -26 18 -32 -17 -27 -144 -83 -274 -119 -140 -40 -430 -100 -580 -121
-235 -33 -687 -49 -811 -29 -36 5 -87 13 -115 18 -50 7 -50 8 -23 20 18 9 36
35 57 80 32 71 40 64 16 -15 -19 -62 -19 -74 0 -74 8 0 24 23 37 52 l22 53 8
-44 c4 -25 11 -48 16 -53 5 -5 23 14 41 44 70 114 82 132 77 118 -2 -8 -13
-39 -22 -68 -15 -46 -16 -55 -4 -62 21 -13 31 -1 88 112 44 87 68 152 110 293
11 37 -40 -7 -71 -61 -18 -32 -27 -40 -23 -24 2 14 7 43 11 65 l6 40 -26 -30
c-15 -16 -40 -51 -57 -77 -16 -27 -31 -48 -33 -48 -2 0 7 28 21 62 25 63 27
93 6 67 -39 -46 -90 -121 -115 -169 -38 -73 -43 -76 -17 -10 28 70 35 100 23
100 -16 0 -61 -53 -93 -110 -32 -57 -32 -37 1 39 11 24 18 46 16 48 -3 2 -19
-15 -38 -37 -51 -61 -134 -149 -111 -117 25 34 47 96 37 105 -4 4 -19 -7 -33
-23 -15 -17 -47 -53 -71 -80 l-43 -50 23 42 c12 24 20 46 16 50 -9 9 -71 -62
-97 -112 l-22 -40 7 37 c9 54 -17 41 -50 -26 -36 -73 -46 -227 -20 -286 10
-23 24 -39 30 -36 8 3 14 -14 18 -51 7 -63 11 -71 31 -54 10 8 15 49 18 159 4
109 9 156 22 182 9 19 14 28 12 19 -2 -9 -7 -38 -11 -65 -3 -27 -8 -64 -11
-81 -8 -50 12 -39 40 22 16 33 44 69 72 92 29 24 55 59 72 95 14 32 27 56 29
54 5 -4 -45 -126 -62 -152 -19 -30 -19 -40 3 -47 9 -3 51 -18 92 -32 102 -36
280 -42 615 -21 329 21 653 78 908 161 215 70 348 161 293 200 -21 16 -20 23
2 27 9 2 35 -9 57 -25 57 -41 57 -16 -1 74 -45 71 -158 199 -176 199 -4 0 -8
-7 -8 -16z m-1415 -210 c-8 -20 -15 -39 -15 -42 0 -3 -2 -3 -5 0 -6 5 22 78
30 78 3 0 -2 -16 -10 -36z m-164 -205 c-9 -23 -10 -23 -10 -2 -1 12 2 30 6 40
6 15 8 15 11 2 1 -8 -2 -26 -7 -40z m-444 -271 c-2 -18 -4 -6 -4 27 0 33 2 48
4 33 2 -15 2 -42 0 -60z"/>
<path d="M3895 5558 c-11 -6 -72 -60 -136 -120 -164 -153 -198 -227 -185 -397
7 -88 15 -111 33 -89 10 12 31 134 39 220 4 53 25 86 99 164 95 99 199 234
179 234 -5 0 -18 -6 -29 -12z"/>
<path d="M5870 5561 c0 -6 10 -27 22 -48 l22 -38 -47 38 c-76 62 -84 44 -21
-48 75 -110 120 -192 134 -245 6 -25 18 -52 26 -61 11 -12 13 -28 8 -58 -5
-33 -4 -41 9 -41 8 0 20 15 27 33 7 17 22 42 34 55 27 31 24 75 -14 191 -37
113 -48 130 -118 187 -51 42 -82 55 -82 35z m172 -365 c1 -20 -2 -39 -5 -43
-4 -3 -7 15 -7 42 0 55 10 56 12 1z"/>
<path d="M4521 5506 c-12 -18 -21 -40 -21 -47 0 -8 -5 -21 -10 -29 -7 -10 -9
1 -4 38 6 47 5 52 -12 52 -26 0 -59 -52 -94 -149 -17 -46 -37 -95 -44 -109
-23 -45 -41 -141 -29 -153 8 -8 16 -3 29 17 9 16 32 52 50 79 18 28 40 69 50
93 26 67 25 45 -2 -33 -58 -170 -3 -166 66 5 18 45 35 79 37 76 2 -2 -5 -35
-16 -74 -23 -74 -27 -122 -11 -122 15 0 46 38 63 78 9 20 30 70 47 110 33 77
51 172 32 172 -10 0 -44 -37 -69 -76 -11 -16 -11 -15 -3 9 24 70 -2 85 -36 22
-26 -48 -28 -37 -5 24 22 58 13 67 -18 17z m-44 -118 c-3 -8 -6 -5 -6 6 -1 11
2 17 5 13 3 -3 4 -12 1 -19z"/>
<path d="M5542 5522 c14 -32 103 -192 117 -211 39 -51 49 13 13 84 -31 62 -92
135 -113 135 -11 0 -19 -3 -17 -8z"/>
<path d="M4698 5463 c-30 -35 -80 -146 -94 -212 -17 -83 -17 -81 4 -81 29 0
94 158 108 261 7 54 5 58 -18 32z"/>
<path d="M4712 5358 c-36 -159 -38 -178 -15 -178 29 0 40 17 52 84 17 90 12
186 -8 186 -4 0 -17 -42 -29 -92z"/>
<path d="M4814 5426 c-7 -18 44 -170 70 -209 28 -40 56 -48 56 -15 0 35 -62
189 -88 221 -18 21 -31 22 -38 3z"/>
<path d="M5285 4850 c-7 -11 17 -61 39 -79 13 -11 16 -11 16 3 0 25 -28 86
-39 86 -5 0 -13 -4 -16 -10z"/>
<path d="M5214 4819 c-9 -16 48 -123 69 -127 32 -6 29 26 -7 82 -36 56 -49 66
-62 45z"/>
<path d="M5140 4778 c1 -43 50 -142 73 -146 36 -7 11 105 -36 156 -28 30 -37
28 -37 -10z"/>
<path d="M5064 4775 c-6 -14 9 -69 43 -162 16 -44 47 -59 59 -28 5 12 -23 93
-58 171 -13 28 -37 39 -44 19z"/>
<path d="M3780 4765 c0 -3 -7 -40 -16 -81 -9 -44 -12 -89 -8 -107 l7 -32 18
50 c19 54 25 175 9 175 -5 0 -10 -2 -10 -5z"/>
<path d="M4980 4753 c0 -10 11 -52 24 -93 40 -125 43 -129 65 -123 28 7 26 30
-12 138 -26 74 -36 91 -54 93 -17 3 -23 -2 -23 -15z"/>
<path d="M4909 4708 l-1 -53 -10 43 c-10 45 -34 65 -49 41 -15 -24 -11 -262 5
-285 19 -25 23 -13 35 96 4 47 9 67 10 45 2 -75 13 -115 34 -126 19 -11 19 -8
15 60 l-4 72 23 -45 c26 -51 34 -58 53 -46 12 7 12 17 1 62 -41 164 -110 248
-112 136z"/>
<path d="M4555 4669 c-28 -84 -26 -110 6 -71 21 27 39 83 39 125 0 49 -18 28
-45 -54z"/>
<path d="M4643 4724 c-19 -30 -44 -139 -36 -160 13 -35 37 -2 59 81 25 93 14
134 -23 79z"/>
<path d="M4714 4738 c-24 -39 -44 -221 -25 -233 15 -9 50 99 57 175 6 60 5 70
-9 70 -9 0 -19 -5 -23 -12z"/>
<path d="M4780 4730 c-13 -24 -28 -170 -22 -211 2 -16 10 -29 16 -29 27 0 67
177 52 234 -8 31 -31 34 -46 6z"/>
<path d="M5749 2978 c-7 -13 -59 -162 -115 -333 -56 -170 -140 -421 -187 -557
-82 -238 -102 -314 -85 -324 26 -16 68 78 224 503 113 310 194 600 194 697 0
41 -13 47 -31 14z"/>
<path d="M7594 3169 c-11 -14 -110 -274 -309 -819 -30 -80 -79 -210 -110 -290
-104 -264 -175 -448 -249 -650 -19 -52 -52 -142 -74 -200 -22 -58 -74 -195
-115 -305 -42 -110 -94 -246 -116 -303 -77 -200 -95 -260 -81 -277 7 -9 17
-12 21 -8 9 9 117 286 239 613 48 129 106 285 129 345 23 61 66 178 96 260 30
83 66 177 81 210 14 33 39 96 54 140 25 70 87 236 121 321 6 16 33 90 59 164
50 143 97 250 85 195 -4 -16 -11 -55 -15 -86 -5 -32 -14 -67 -20 -80 -7 -12
-23 -54 -35 -93 -13 -39 -41 -117 -63 -172 -23 -56 -95 -261 -161 -455 -67
-195 -134 -390 -150 -434 -271 -737 -291 -795 -291 -825 0 -26 22 -26 38 1 7
11 58 147 113 302 55 155 106 298 114 317 20 47 85 232 145 410 52 158 145
421 209 595 51 138 125 373 145 455 5 22 4 21 -9 -5 -31 -60 -7 120 30 225 18
52 56 161 85 242 35 100 50 159 48 184 -2 30 -5 34 -14 23z"/>
<path d="M7683 3083 c-40 -73 -113 -309 -233 -753 -48 -178 -319 -1009 -416
-1275 -95 -259 -214 -609 -214 -628 0 -30 20 -28 39 3 10 18 60 154 110 303
50 150 114 328 140 397 27 69 55 142 62 163 7 20 17 37 21 37 4 0 8 10 8 23 0
12 5 29 10 37 17 26 11 -5 -19 -102 -16 -51 -40 -138 -54 -193 -14 -55 -37
-145 -52 -200 -101 -389 -145 -565 -145 -583 0 -23 20 -72 29 -72 13 0 50 98
61 160 6 35 22 98 35 140 13 41 31 111 40 155 9 44 34 139 55 210 21 72 53
184 70 250 18 66 67 230 110 365 156 491 230 728 264 850 19 69 71 238 115
377 77 239 92 303 72 303 -27 0 -79 -124 -165 -395 -57 -176 -100 -298 -91
-255 13 61 137 524 163 610 17 52 28 98 25 103 -9 14 -20 6 -40 -30z"/>
<path d="M7846 2908 c-8 -13 -30 -75 -50 -138 -19 -64 -52 -165 -71 -225 -20
-61 -54 -168 -75 -240 -21 -71 -57 -193 -80 -270 -23 -77 -52 -176 -65 -220
-12 -44 -38 -134 -58 -200 -153 -511 -289 -1037 -286 -1107 1 -22 1 -22 9 2
14 40 86 284 124 420 161 571 358 1249 401 1380 13 41 31 100 39 130 8 30 39
136 69 235 71 235 81 293 43 233z"/>
<path d="M8188 2840 c-29 -44 -106 -260 -248 -695 -91 -281 -302 -1005 -441
-1520 -61 -223 -64 -241 -50 -249 17 -11 37 41 80 200 22 82 47 172 57 199 9
28 40 133 69 235 57 198 136 468 233 800 33 113 96 313 140 445 44 132 103
316 132 409 51 171 60 225 28 176z"/>
<path d="M8545 2631 c-17 -28 -130 -360 -205 -601 -23 -74 -57 -180 -75 -235
-18 -55 -43 -140 -54 -190 -25 -105 -58 -223 -111 -390 -73 -232 -180 -662
-202 -810 -9 -66 -9 -88 0 -97 22 -22 38 13 62 132 44 230 100 449 205 810 53
181 85 296 115 415 35 139 157 534 211 685 71 200 93 290 70 290 -6 0 -12 -4
-16 -9z"/>
<path d="M8642 2608 c-14 -18 -117 -311 -192 -548 -34 -107 -76 -242 -95 -300
-19 -58 -43 -143 -55 -190 -32 -127 -96 -352 -109 -380 -23 -52 -110 -393
-151 -595 -27 -130 -28 -174 -3 -143 10 13 73 246 92 344 5 27 22 90 36 140
15 49 35 118 45 154 11 36 24 78 29 93 16 42 97 322 121 417 19 81 49 173 224
716 41 127 78 247 81 268 7 37 -3 48 -23 24z"/>
<path d="M9673 2004 c-83 -62 -271 -254 -376 -384 -56 -69 -131 -156 -167
-195 -114 -122 -233 -273 -314 -398 -30 -45 -67 -99 -84 -120 -30 -37 -78
-145 -68 -154 2 -2 12 7 23 22 10 14 36 49 59 78 22 29 70 95 105 147 86 128
197 268 289 365 42 44 112 125 155 180 44 55 162 184 262 286 101 102 183 191
183 197 0 20 -16 14 -67 -24z"/>
<path d="M179 1991 c-24 -21 -41 -42 -37 -47 9 -8 41 19 70 59 26 37 19 34
-33 -12z"/>
<path d="M213 1852 c-45 -31 -83 -62 -83 -69 0 -26 22 -22 64 10 155 118 169
163 19 59z"/>
<path d="M297 1824 c-32 -25 -75 -62 -95 -82 -20 -21 -61 -57 -90 -81 -52 -43
-66 -71 -36 -71 30 0 319 254 309 271 -11 17 -30 9 -88 -37z"/>
<path d="M396 1791 c-101 -88 -316 -295 -316 -302 0 -5 7 -9 16 -9 20 0 92 58
225 182 54 50 108 97 119 105 25 17 25 30 3 41 -13 7 -26 2 -47 -17z"/>
<path d="M9795 1749 c-61 -45 -186 -170 -304 -304 -58 -66 -110 -125 -116
-131 -5 -6 -68 -82 -140 -169 -71 -87 -186 -221 -255 -297 -69 -77 -143 -163
-165 -193 -97 -130 -148 -209 -157 -243 -6 -21 -30 -58 -58 -87 -66 -69 -76
-91 -54 -116 16 -18 18 -17 73 29 31 27 78 64 105 82 72 49 303 235 365 294
29 28 85 87 124 131 127 144 348 375 537 561 102 100 181 186 177 190 -17 17
-63 -18 -208 -156 -83 -80 -155 -146 -159 -148 -4 -2 -121 -122 -260 -268
-138 -145 -284 -290 -323 -321 -172 -137 -292 -223 -313 -223 -15 0 119 130
202 195 115 91 424 425 544 591 56 77 152 193 214 259 187 198 236 254 236
270 0 20 -12 19 -41 -4 -52 -41 -363 -383 -451 -496 -51 -65 -129 -160 -173
-210 -44 -49 -130 -148 -192 -220 -61 -71 -126 -143 -144 -160 -39 -34 -28
-20 62 86 58 68 106 126 239 287 25 30 77 94 115 143 39 48 133 159 210 246
77 87 167 190 200 229 34 39 78 86 98 104 36 31 63 68 55 75 -2 2 -21 -10 -43
-26z"/>
<path d="M450 1723 c-97 -80 -370 -341 -370 -354 0 -30 53 4 152 99 63 59 155
145 206 191 84 76 101 101 69 101 -7 0 -32 -17 -57 -37z"/>
<path d="M1889 1708 c-24 -60 -277 -571 -354 -713 -70 -131 -87 -175 -67 -175
5 0 16 8 24 18 29 33 181 316 296 549 103 211 115 240 117 293 1 33 1 60 0 60
-2 0 -8 -15 -16 -32z"/>
<path d="M570 1699 c-65 -40 -184 -143 -329 -284 -152 -148 -186 -189 -176
-205 10 -16 57 22 220 180 83 80 179 169 215 199 122 101 164 167 70 110z"/>
<path d="M654 1634 c-59 -29 -196 -147 -375 -323 -172 -169 -221 -233 -149
-196 17 9 113 95 213 192 100 96 224 209 275 250 50 40 92 78 92 83 0 14 -20
12 -56 -6z"/>
<path d="M9880 1592 c-8 -8 -87 -84 -175 -169 -88 -85 -153 -151 -145 -147 8
4 22 13 30 20 8 7 18 13 23 13 10 0 91 70 166 141 88 83 135 140 125 149 -5 4
-16 1 -24 -7z"/>
<path d="M705 1553 c-93 -62 -501 -433 -547 -496 -16 -23 -18 -30 -7 -43 11
-13 28 0 123 94 109 107 355 329 449 406 44 36 54 55 31 63 -5 2 -27 -9 -49
-24z"/>
<path d="M764 1449 c-83 -62 -115 -88 -174 -143 -25 -22 -79 -70 -120 -106
-110 -95 -319 -301 -326 -322 -8 -28 4 -40 28 -27 11 6 84 72 162 148 127 123
268 250 458 414 65 56 84 87 54 87 -7 0 -44 -23 -82 -51z"/>
<path d="M885 1398 c-46 -25 -403 -341 -580 -512 -102 -99 -108 -107 -93 -122
16 -16 22 -12 95 62 82 83 185 177 424 384 79 69 162 142 184 162 38 36 39 37
15 37 -14 0 -34 -5 -45 -11z"/>
<path d="M944 1293 c-187 -140 -664 -606 -664 -648 0 -38 43 -8 126 86 72 83
409 399 514 484 29 23 90 96 90 107 0 15 -18 8 -66 -29z"/>
<path d="M9898 1229 c-62 -56 -219 -204 -349 -330 -129 -126 -253 -241 -275
-257 -21 -16 -75 -53 -119 -83 -366 -252 -415 -289 -415 -319 0 -9 7 -23 15
-30 13 -10 19 -10 33 2 9 8 78 52 152 98 74 46 180 113 235 150 86 57 416 230
440 230 4 0 -21 -22 -57 -49 -162 -120 -422 -356 -433 -392 -17 -52 20 -28
175 111 52 47 149 129 215 183 136 110 230 194 200 179 -11 -6 -37 -24 -59
-41 -47 -38 -58 -40 -25 -5 22 24 155 103 274 164 59 30 65 54 16 58 -53 5
-339 -107 -457 -178 -35 -22 -65 -40 -67 -40 -1 0 66 69 148 153 128 129 331
319 464 434 23 20 32 35 28 46 -4 10 -11 17 -17 17 -5 0 -60 -46 -122 -101z"/>
<path d="M1009 1191 c-24 -15 -87 -68 -140 -117 -52 -49 -130 -120 -173 -158
-42 -38 -85 -76 -95 -85 -42 -38 -171 -199 -171 -215 0 -25 19 -19 48 16 75
91 181 195 294 290 112 95 127 105 141 91 13 -13 14 -12 10 11 -4 21 6 36 65
91 61 58 94 105 73 105 -4 0 -27 -13 -52 -29z"/>
<path d="M1975 728 c-98 -164 -168 -318 -152 -335 14 -14 48 33 76 106 16 43
48 111 70 152 44 82 74 159 62 159 -4 0 -29 -37 -56 -82z"/>
<path d="M2517 608 c-97 -196 -103 -211 -80 -206 10 2 32 30 50 63 36 67 118
283 111 291 -3 2 -39 -64 -81 -148z"/>
<path d="M9836 690 c-37 -27 -116 -92 -174 -143 -59 -50 -143 -121 -186 -156
-70 -56 -77 -65 -63 -78 13 -14 23 -9 92 41 42 31 117 94 168 139 51 46 128
114 172 152 44 38 80 73 80 79 0 23 -28 13 -89 -34z"/>
<path d="M2933 674 c-17 -22 -57 -88 -88 -148 -43 -80 -55 -110 -46 -119 17
-17 30 2 106 150 70 138 81 184 28 117z"/>
<path d="M9904 546 c-83 -63 -258 -217 -262 -231 -2 -7 4 -17 12 -24 12 -10
27 -2 83 46 189 160 253 216 253 223 0 4 -6 13 -14 19 -11 9 -26 2 -72 -33z"/>
<path d="M580 546 c0 -12 25 -28 78 -52 123 -55 271 -134 487 -260 120 -70
129 -74 120 -43 -12 43 -80 94 -254 188 -274 149 -431 210 -431 167z"/>
<path d="M490 456 c0 -21 34 -42 116 -70 85 -29 286 -129 378 -189 73 -47 96
-50 96 -12 0 27 -31 48 -190 132 -222 118 -400 179 -400 139z"/>
<path d="M473 353 c-31 -12 -6 -30 84 -61 53 -18 154 -55 225 -83 122 -47 188
-61 188 -39 0 24 -163 97 -335 150 -106 32 -145 41 -162 33z"/>
</g>
</svg>
