<?xml version="1.0" standalone="no"?>
<!DOCTYPE svg PUBLIC "-//W3C//DTD SVG 20010904//EN"
 "http://www.w3.org/TR/2001/REC-SVG-20010904/DTD/svg10.dtd">
<svg version="1.0" xmlns="http://www.w3.org/2000/svg"
 width="1024.000000pt" height="1024.000000pt" viewBox="0 0 960 960"
 preserveAspectRatio="xMidYMid meet">

<g transform="translate(0.000000,1024.000000) scale(0.100000,-0.100000)"
fill="#000000" stroke="none">
<path d="M4575 10053 c-422 -26 -897 -130 -1371 -301 -131 -48 -383 -167 -474
-224 -164 -103 -260 -170 -325 -224 -38 -33 -98 -81 -133 -108 -38 -28 -61
-54 -60 -63 2 -11 -8 -19 -28 -25 -37 -9 -52 -37 -29 -54 13 -10 11 -12 -15
-17 -30 -6 -70 -39 -70 -57 0 -5 15 -14 33 -19 26 -7 27 -9 9 -10 -37 -2 -60
-18 -87 -65 -14 -23 -25 -45 -25 -48 0 -3 42 -8 93 -10 50 -3 131 -14 179 -24
83 -17 120 -14 88 7 -33 21 -150 50 -223 56 -72 6 -76 7 -56 21 39 27 273 -4
402 -53 26 -10 21 12 -7 30 -13 9 -86 31 -161 50 -76 19 -139 36 -141 38 -2 1
1 9 5 16 11 17 132 2 286 -35 55 -13 114 -24 130 -24 l30 1 -25 13 c-14 8
-101 33 -195 57 -93 23 -172 44 -175 46 -2 2 2 9 10 14 26 17 143 1 327 -46
197 -50 200 -51 183 -31 -15 19 -97 45 -285 91 -82 21 -154 41 -159 45 -4 5 1
13 13 19 15 8 39 9 88 1 86 -14 313 -73 405 -106 65 -24 94 -26 72 -5 -18 18
-207 82 -341 116 -76 20 -142 37 -148 39 -5 1 3 10 17 20 25 16 32 17 90 3 92
-22 371 -98 380 -103 13 -8 9 13 -5 24 -19 16 -147 56 -277 87 -153 36 -148
34 -130 46 42 27 386 -64 502 -132 89 -53 159 -82 152 -65 -8 20 -182 114
-292 156 -53 21 -133 46 -177 55 -115 24 -112 22 -87 47 l22 22 97 -23 c126
-31 532 -168 696 -236 37 -16 14 12 -33 38 -89 50 -549 211 -667 233 -39 7
-43 21 -10 33 56 22 380 -67 742 -204 106 -40 188 -65 193 -60 7 6 -98 56
-212 100 -155 60 -400 137 -538 171 -65 16 -118 32 -118 37 0 4 11 11 23 16
58 22 454 -87 875 -241 127 -47 154 -48 77 -2 -98 57 -356 142 -750 247 -125
34 -129 35 -102 48 25 11 42 10 115 -6 247 -53 297 -63 300 -60 6 6 -110 46
-220 75 -65 18 -118 34 -118 36 0 3 10 8 23 13 30 12 241 -43 362 -94 50 -21
146 -59 215 -86 69 -26 186 -73 260 -104 139 -57 191 -68 134 -28 -65 47 -592
257 -784 313 -122 36 -118 34 -77 54 45 21 68 17 242 -36 297 -91 473 -156
913 -335 6 -3 12 0 12 6 0 22 -252 138 -501 230 -123 45 -403 132 -519 162
-44 11 -44 11 -20 25 14 7 36 13 50 14 70 1 601 -171 820 -265 80 -34 156 -66
170 -70 14 -4 60 -25 103 -46 42 -22 77 -35 77 -29 0 10 -116 90 -131 90 -4 0
-40 15 -81 34 -239 111 -434 181 -788 283 l-94 27 32 13 c41 17 81 7 387 -90
236 -75 465 -160 638 -237 59 -26 107 -44 107 -39 0 15 -87 68 -176 107 -161
71 -634 233 -799 274 -27 6 -54 15 -58 19 -18 15 51 18 113 5 151 -31 673
-204 817 -271 118 -56 225 -95 220 -82 -5 17 -176 101 -321 157 -153 60 -474
168 -598 201 -49 13 -88 27 -88 31 0 12 47 21 78 15 70 -14 166 -41 257 -71
55 -19 138 -46 185 -61 104 -33 316 -117 468 -184 129 -58 146 -47 26 16 -166
88 -374 167 -728 278 -102 32 -145 50 -135 55 30 17 232 -32 494 -122 50 -16
95 -34 100 -38 6 -5 30 -16 55 -26 54 -21 222 -92 303 -128 60 -27 77 -31 77
-18 0 12 -260 135 -415 196 -135 53 -385 136 -453 151 -39 8 -34 21 10 27 35
5 236 -48 363 -96 39 -15 108 -41 155 -58 47 -16 97 -37 112 -44 28 -14 318
-134 324 -134 2 0 4 4 4 8 0 29 -444 213 -755 313 -92 29 -98 33 -72 41 28 10
67 3 222 -40 143 -39 496 -175 613 -236 28 -14 32 -15 32 -1 0 27 -218 124
-550 243 -30 10 -79 25 -107 32 -80 18 -66 33 25 28 65 -4 109 -17 292 -86
383 -144 451 -170 467 -184 14 -11 16 -11 12 2 -5 17 -204 119 -289 149 -30
11 -104 38 -165 61 -60 23 -130 49 -155 58 l-45 17 54 7 c61 7 62 7 411 -119
107 -38 231 -86 274 -106 91 -43 86 -41 86 -22 0 20 -133 82 -375 174 -142 54
-204 82 -192 86 27 11 101 -3 222 -42 127 -41 369 -134 437 -169 58 -29 67
-30 42 -3 -24 27 -159 95 -288 145 -55 22 -92 40 -83 42 28 6 186 -47 307
-103 138 -62 150 -67 150 -55 0 13 -45 42 -145 94 -49 25 -85 46 -79 46 15 0
170 -53 232 -80 50 -22 53 -25 47 -52 -4 -16 -49 -140 -100 -276 -51 -136
-115 -314 -143 -397 -122 -363 -175 -511 -242 -675 -89 -220 -248 -561 -306
-656 -48 -79 -52 -94 -28 -94 9 0 51 -23 92 -52 77 -52 322 -182 329 -174 6 5
-67 55 -137 93 -164 90 -270 156 -270 167 0 7 9 21 20 31 23 21 131 203 159
267 10 24 41 90 69 148 28 58 70 159 92 224 23 65 50 137 61 158 24 47 93 238
119 328 10 36 59 184 108 330 50 146 114 338 143 428 41 126 56 162 69 162 10
0 23 -7 30 -15 10 -12 5 -39 -24 -142 -19 -71 -58 -209 -85 -308 -49 -174 -82
-288 -196 -655 -30 -96 -66 -220 -81 -275 -14 -55 -66 -206 -115 -335 -94
-250 -106 -290 -92 -290 21 0 191 428 239 605 20 71 58 198 84 280 27 83 58
186 69 230 58 230 92 350 110 388 24 49 95 325 105 407 10 77 17 86 55 70 17
-7 31 -20 31 -29 0 -9 -14 -67 -30 -129 -17 -63 -40 -157 -51 -210 -11 -54
-22 -105 -25 -114 -3 -11 0 -18 9 -18 16 0 51 109 98 310 18 74 35 139 39 143
10 11 50 -14 50 -31 0 -7 -23 -108 -51 -223 -48 -196 -54 -238 -29 -213 11 11
56 170 92 327 l23 97 52 -32 c29 -19 53 -40 53 -50 0 -9 -7 -43 -15 -75 -8
-31 -15 -78 -15 -103 0 -25 -7 -72 -14 -105 -8 -33 -13 -61 -11 -63 7 -7 65
189 76 258 12 73 21 84 39 49 9 -16 7 -45 -9 -127 -29 -153 -34 -202 -22 -202
19 0 31 38 53 170 12 71 25 130 28 130 3 0 23 -15 45 -34 l39 -34 -12 -73 c-7
-41 -20 -116 -27 -167 -8 -51 -22 -119 -30 -150 -9 -31 -31 -140 -50 -242 -59
-321 -75 -401 -117 -570 -39 -161 -137 -530 -158 -600 -21 -70 -37 -160 -29
-165 4 -3 20 34 35 82 14 48 43 144 64 213 59 191 108 376 126 470 8 47 26
128 40 181 13 53 42 193 63 310 22 118 53 279 69 359 17 80 35 184 42 233 7
48 16 87 21 87 5 0 15 -10 23 -23 13 -19 13 -33 2 -102 -8 -44 -17 -107 -21
-140 -10 -95 -24 -192 -35 -238 -5 -23 -18 -103 -30 -177 -11 -74 -31 -180
-44 -235 -13 -55 -27 -120 -31 -145 -6 -44 -53 -258 -93 -430 -11 -47 -43
-172 -70 -278 -29 -113 -46 -192 -39 -189 19 6 44 87 121 392 107 423 166 708
236 1155 11 69 22 134 24 145 2 11 9 59 16 108 13 84 14 86 32 71 20 -19 23
-51 9 -104 -5 -19 -12 -64 -15 -100 -13 -129 -27 -236 -41 -295 -7 -33 -21
-109 -30 -170 -9 -60 -25 -153 -36 -205 -11 -52 -31 -151 -45 -220 -14 -69
-33 -154 -44 -190 -10 -36 -26 -103 -35 -150 -14 -71 -101 -421 -135 -539 -10
-38 -6 -51 11 -34 20 20 143 475 184 683 9 47 28 126 40 175 63 243 156 785
171 1003 4 50 11 92 15 92 5 0 16 -11 25 -25 14 -22 16 -42 10 -133 -10 -145
-32 -355 -51 -480 -16 -100 -15 -126 4 -106 14 14 67 358 89 573 7 73 7 74 26
56 17 -18 18 -30 13 -150 -7 -132 -40 -421 -57 -485 -5 -19 -14 -71 -20 -115
-17 -127 -59 -378 -74 -452 -8 -37 -22 -122 -31 -188 -9 -66 -27 -169 -40
-230 -30 -138 -65 -336 -65 -365 0 -71 48 73 75 225 9 50 36 196 61 325 25
129 56 309 69 400 13 91 47 320 75 509 27 189 50 367 50 395 l0 50 29 -34 c54
-63 56 -76 38 -233 -9 -78 -21 -191 -27 -252 -6 -60 -20 -159 -30 -220 -11
-60 -28 -186 -40 -280 -11 -93 -36 -258 -55 -365 -19 -107 -39 -233 -45 -280
-6 -47 -22 -128 -35 -180 -13 -52 -35 -158 -50 -235 -14 -77 -34 -178 -44
-225 -10 -47 -29 -130 -40 -185 -12 -55 -25 -109 -28 -120 -5 -17 -4 -18 10
-7 14 12 15 4 12 -80 l-4 -93 14 105 c23 181 82 478 150 756 19 78 42 193 51
255 8 63 24 157 35 209 35 169 145 975 168 1230 l7 75 22 -35 c26 -42 27 -75
8 -248 -8 -70 -22 -194 -31 -277 -9 -82 -25 -199 -36 -260 -10 -60 -26 -164
-34 -229 -9 -66 -29 -185 -45 -265 -15 -80 -34 -186 -40 -236 -12 -96 -33
-197 -51 -242 -6 -16 -22 -93 -35 -173 -13 -80 -33 -185 -44 -235 -37 -170
-88 -450 -95 -515 -3 -36 -9 -78 -12 -94 -3 -18 -1 -26 5 -22 5 3 17 48 27 98
31 175 77 403 95 478 61 241 211 1048 254 1360 54 386 86 647 86 693 0 55 11
54 40 -3 25 -49 25 -84 0 -263 -10 -78 -26 -205 -34 -282 -9 -78 -25 -195 -36
-260 -12 -66 -30 -174 -40 -240 -11 -66 -30 -167 -44 -225 -13 -58 -29 -139
-36 -180 -6 -41 -25 -136 -40 -210 -16 -74 -34 -166 -41 -205 -6 -38 -23 -122
-39 -185 -15 -63 -33 -151 -40 -195 -6 -44 -23 -127 -37 -185 -27 -117 -65
-351 -58 -359 13 -13 28 25 44 115 27 146 130 653 141 694 14 51 146 723 180
915 68 380 97 579 124 840 l13 120 23 -49 c30 -66 29 -78 -46 -621 -17 -126
-67 -384 -94 -495 -11 -41 -30 -147 -44 -235 -30 -185 -77 -418 -201 -985 -47
-217 -85 -412 -85 -439 0 -13 5 -21 12 -19 14 5 32 79 123 523 41 198 85 412
99 475 14 63 34 171 46 240 11 69 30 170 40 225 11 55 27 141 35 190 9 50 27
128 40 175 14 47 34 144 45 215 16 102 77 564 81 610 0 6 9 -12 19 -40 23 -62
24 -145 6 -273 -8 -53 -20 -146 -26 -207 -6 -60 -20 -164 -31 -230 -11 -66
-24 -187 -29 -270 -12 -201 -55 -567 -79 -685 -11 -53 -28 -145 -37 -205 -8
-61 -29 -166 -45 -235 -16 -69 -49 -235 -74 -370 -25 -135 -48 -257 -51 -272
-5 -21 -2 -28 9 -28 11 0 18 20 26 77 6 42 14 79 16 82 3 2 6 -128 6 -290 1
-335 -1 -303 39 -537 87 -510 232 -861 473 -1148 92 -110 272 -284 359 -347
35 -25 74 -55 87 -65 l24 -19 -79 -32 c-193 -80 -380 -189 -628 -366 -130 -93
-169 -122 -490 -370 -350 -271 -641 -475 -678 -475 -10 0 -28 4 -38 10 -16 8
-397 -17 -525 -36 -92 -13 -228 -71 -240 -102 -11 -31 12 -33 71 -9 40 17 95
29 169 36 135 14 415 26 415 18 0 -15 -194 -130 -335 -198 -266 -127 -485
-200 -785 -261 -132 -27 -178 -31 -310 -32 -126 0 -164 3 -205 18 -69 25 -105
61 -105 105 0 46 139 475 190 585 47 103 85 160 160 243 30 33 80 95 110 137
30 41 60 75 66 76 26 0 74 -236 74 -362 0 -44 2 -48 24 -48 37 0 49 24 56 118
13 163 -21 305 -111 465 -37 65 -58 121 -84 218 -53 196 -69 222 -227 345 -59
47 -114 98 -122 112 -7 15 -16 65 -19 112 -3 47 -8 92 -12 100 -5 16 41 54
225 185 368 264 520 384 574 454 21 28 52 63 69 77 52 44 151 169 166 210 8
22 23 51 34 66 39 53 46 320 13 538 -18 116 -32 155 -89 256 -97 172 -135 258
-356 815 -96 243 -136 329 -151 329 -25 0 -9 -51 130 -410 142 -369 195 -497
297 -710 47 -97 63 -139 76 -197 3 -13 3 -23 0 -23 -2 0 -46 87 -97 193 -85
174 -140 303 -254 592 -92 233 -175 421 -194 440 l-20 20 5 -38 c6 -36 49
-156 162 -447 31 -80 81 -216 111 -303 30 -88 80 -211 110 -275 59 -124 164
-379 164 -397 -1 -20 -63 111 -122 259 -33 83 -75 180 -93 216 -18 36 -67 153
-110 260 -43 107 -92 229 -111 270 -18 41 -52 125 -75 185 -41 107 -77 177
-99 190 -5 3 -10 1 -10 -6 0 -24 52 -184 90 -279 104 -257 275 -691 291 -739
33 -96 13 -65 -46 71 -31 73 -99 225 -150 338 -51 113 -114 253 -140 312 -45
102 -85 163 -92 141 -2 -6 23 -82 56 -170 54 -143 92 -234 235 -566 53 -123
131 -255 182 -308 44 -45 194 -315 194 -348 0 -20 -10 -8 -43 49 -137 235
-183 309 -212 341 -41 46 -148 235 -291 514 -105 204 -148 274 -161 261 -13
-13 38 -130 176 -411 82 -165 166 -325 186 -355 109 -159 145 -217 101 -165
-89 105 -265 369 -377 566 -45 79 -92 163 -106 187 -13 23 -31 42 -39 42 -18
0 -17 -7 36 -130 53 -125 100 -205 279 -473 212 -320 383 -608 369 -623 -2 -2
-19 22 -38 54 -52 87 -171 261 -290 422 -59 80 -155 215 -215 300 -195 279
-212 300 -241 300 -35 0 157 -302 399 -629 131 -177 176 -244 256 -376 64
-106 80 -140 69 -146 -21 -14 -22 -13 -63 64 -51 95 -68 116 -117 144 -48 28
-56 29 -36 6 15 -17 138 -256 138 -268 0 -18 -19 3 -44 48 -61 112 -148 235
-169 241 -59 16 -61 -1 -8 -75 58 -82 143 -246 139 -270 -2 -16 -14 -4 -56 58
-89 133 -115 168 -182 249 -100 120 -151 184 -200 249 -24 33 -81 105 -125
160 -44 55 -91 115 -103 133 -23 31 -62 44 -62 20 0 -24 71 -132 170 -258 53
-69 119 -156 147 -195 27 -38 81 -109 119 -156 38 -48 90 -124 116 -170 26
-46 59 -97 74 -113 l28 -29 -23 -18 c-24 -20 -41 -24 -41 -11 0 4 -27 41 -60
82 -33 41 -72 99 -87 128 -14 29 -45 79 -67 112 -132 191 -225 317 -301 410
-48 58 -103 125 -123 149 -20 25 -38 39 -40 33 -5 -16 39 -94 127 -222 l72
-105 -68 75 c-37 41 -82 91 -100 110 -17 19 -34 32 -38 28 -11 -10 41 -98 110
-188 77 -99 161 -211 226 -301 46 -63 64 -85 214 -267 73 -88 76 -94 59 -107
-11 -8 -22 -15 -26 -15 -3 0 -47 48 -96 108 -49 59 -122 143 -163 188 -41 44
-131 165 -201 270 -193 287 -258 367 -258 318 0 -32 152 -272 217 -343 35 -38
63 -72 63 -75 0 -13 -217 205 -282 284 -39 47 -75 87 -81 89 -18 7 43 -94 101
-167 294 -368 573 -696 605 -710 14 -7 7 -31 -13 -42 -17 -9 -25 -6 -48 22
-15 18 -81 91 -147 161 -104 110 -194 219 -328 394 -18 23 -38 41 -46 40 -13
-2 -93 91 -171 200 -52 72 -50 32 5 -77 26 -52 68 -115 98 -148 70 -76 98
-115 142 -192 26 -46 30 -59 15 -45 -11 10 -30 35 -42 54 -51 84 -133 181
-217 259 -49 45 -92 82 -95 82 -18 0 55 -111 151 -231 59 -75 147 -188 195
-251 48 -62 118 -147 155 -188 76 -84 148 -178 141 -186 -12 -11 -264 276
-347 396 -74 106 -255 340 -290 375 -45 43 -55 31 -25 -28 29 -57 201 -311
261 -388 33 -41 83 -108 111 -149 28 -41 86 -115 127 -163 42 -48 75 -92 73
-98 -4 -11 -215 234 -281 326 -23 32 -72 94 -108 139 -36 44 -101 133 -144
196 -107 156 -135 187 -135 143 0 -48 105 -218 291 -470 57 -78 121 -165 141
-195 21 -29 63 -81 94 -115 31 -35 54 -63 52 -63 -8 0 -218 238 -278 315 -30
39 -82 103 -117 143 -35 40 -81 99 -102 131 -51 75 -139 171 -157 171 -8 0
-14 -2 -14 -4 0 -14 112 -192 154 -246 29 -36 76 -99 106 -140 29 -41 112
-149 185 -240 126 -159 168 -215 133 -180 -75 75 -310 355 -442 528 -55 72
-155 176 -163 169 -2 -3 6 -22 19 -44 44 -69 40 -69 -24 0 -35 37 -67 67 -71
67 -13 0 111 -231 156 -290 23 -30 65 -89 93 -130 28 -41 75 -107 105 -147 30
-39 62 -86 72 -105 l19 -33 -26 30 c-124 143 -319 409 -469 643 -46 71 -75 94
-62 50 10 -34 72 -146 184 -332 56 -92 101 -170 101 -174 0 -3 -8 5 -17 18 -9
14 -46 66 -83 115 -123 166 -193 279 -258 413 -67 140 -94 163 -67 57 17 -64
87 -211 153 -320 77 -127 176 -283 227 -357 57 -82 77 -117 43 -74 -13 16 -40
49 -61 73 -20 25 -75 99 -122 166 -88 127 -129 177 -145 177 -15 0 -12 -27 6
-63 63 -122 350 -533 431 -616 29 -30 51 -57 48 -59 -19 -19 -275 310 -399
512 -37 60 -148 206 -157 206 -5 0 -9 -5 -9 -12 0 -16 116 -251 149 -303 41
-64 192 -266 284 -378 26 -32 47 -63 47 -70 0 -14 0 -14 -96 104 -125 152
-255 336 -336 473 -15 25 -32 46 -37 46 -25 0 -14 -38 39 -144 69 -137 125
-223 235 -364 44 -57 86 -114 94 -125 l15 -22 -21 20 c-68 64 -223 267 -288
378 -56 93 -81 127 -93 125 -13 -3 -16 -13 -15 -38 l3 -35 -21 27 c-34 45 -43
35 -36 -38 l6 -66 -29 40 c-65 90 -66 59 -4 -120 26 -73 60 -159 76 -192 16
-32 28 -60 25 -62 -13 -13 -157 277 -157 317 0 39 -60 133 -75 117 -4 -4 20
-124 40 -198 9 -36 41 -119 72 -185 73 -162 70 -153 50 -136 -44 35 -143 280
-183 453 -15 67 -35 100 -51 85 -9 -10 30 -248 51 -311 28 -84 27 -101 -2 -24
-23 63 -55 193 -73 298 -12 70 -21 89 -43 90 -12 0 -1 -149 20 -270 13 -79 50
-199 89 -294 6 -14 5 -17 -4 -12 -25 16 -83 151 -106 249 -22 90 -44 249 -45
315 0 12 -4 22 -10 22 -5 0 -10 -11 -10 -25 0 -15 -5 -24 -12 -22 -10 1 -12
-27 -10 -121 3 -141 21 -241 57 -312 34 -66 31 -75 -5 -20 -48 73 -64 155 -63
315 1 77 3 164 5 194 2 35 -1 56 -9 58 -6 2 -14 -4 -17 -14 -3 -10 -4 -4 -2
12 2 17 11 48 20 70 8 22 15 68 16 102 l0 63 -49 25 c-55 27 -63 45 -60 133
l2 53 51 -7 c28 -4 113 -7 190 -8 105 -1 139 1 143 11 11 29 32 9 61 -57 29
-66 52 -90 52 -54 0 19 -35 158 -60 239 -10 33 -26 90 -35 128 -14 55 -21 67
-37 67 -19 0 -20 -4 -14 -72 4 -40 9 -93 13 -118 3 -25 3 -43 0 -39 -4 3 -13
52 -22 109 -16 106 -26 130 -53 130 -13 0 -14 -17 -9 -130 4 -71 2 -130 -2
-130 -14 0 -21 28 -21 89 0 117 -12 210 -28 216 -25 9 -34 -9 -42 -92 l-7 -78
-2 97 c-1 85 -3 99 -20 108 -23 12 -25 10 -52 -63 -11 -29 -17 -38 -14 -22 3
17 9 54 12 83 5 49 4 52 -16 52 -27 0 -54 -56 -75 -152 -8 -35 -14 -55 -15
-46 -1 10 9 62 20 117 18 82 19 104 9 116 -15 19 -34 6 -57 -38 -20 -40 -53
-199 -53 -259 0 -43 3 -48 26 -54 32 -8 43 7 45 61 1 38 2 37 10 -14 5 -30 17
-63 26 -73 23 -26 13 -30 -46 -17 -67 14 -108 47 -94 75 6 10 24 82 41 159 48
220 46 207 27 203 -17 -3 -33 -27 -60 -88 -8 -19 -13 -26 -10 -16 3 11 8 46
12 78 5 50 4 58 -11 58 -9 0 -25 -13 -34 -30 -19 -33 -37 -41 -28 -12 4 10 0
27 -8 38 -13 16 -18 17 -35 7 -27 -17 -31 -16 -31 2 0 26 -72 62 -185 95 -124
35 -189 70 -222 119 -57 84 -40 150 89 352 119 187 217 368 269 499 34 84 43
121 47 185 4 76 -2 104 -36 167 -2 3 18 0 44 -8 61 -18 84 -18 170 2 70 17 72
17 101 -4 33 -23 88 -121 140 -247 18 -43 33 -80 33 -80 0 -1 -22 -17 -50 -36
-27 -19 -50 -39 -50 -45 0 -18 164 -28 240 -14 88 16 210 75 295 144 39 31 73
56 78 56 4 0 7 9 7 20 0 33 -48 25 -240 -40 -97 -32 -194 -62 -217 -66 l-40
-6 -35 83 c-20 46 -39 100 -43 119 -9 43 -41 108 -67 136 -18 20 -18 22 -1 28
43 17 349 18 487 2 338 -39 321 -14 -84 125 l-215 73 -172 -1 c-181 -2 -252
-11 -370 -45 -64 -18 -73 -24 -73 -44 0 -34 -15 -30 -34 9 -30 64 -30 131 0
312 l27 170 -10 245 c-6 135 -9 274 -7 310 8 104 42 273 75 368 40 111 125
297 156 340 22 29 29 32 79 32 72 0 61 15 -21 29 -81 14 -132 6 -141 -22 -3
-11 -21 -44 -39 -72 -156 -244 -233 -594 -206 -937 18 -223 15 -318 -14 -458
-46 -213 -28 -316 80 -454 72 -93 81 -151 39 -268 -39 -108 -181 -384 -280
-543 -141 -227 -162 -289 -130 -397 33 -113 134 -188 311 -228 98 -22 145 -38
145 -50 0 -4 -16 -37 -35 -74 -19 -37 -35 -74 -35 -81 0 -20 20 -29 33 -16 19
19 22 13 22 -41 0 -38 4 -53 13 -53 8 0 20 -18 27 -39 16 -46 111 -146 172
-183 38 -22 42 -28 35 -51 -4 -15 -7 -55 -7 -89 1 -54 5 -69 34 -110 l33 -47
-21 -43 c-39 -80 -16 -111 41 -56 41 39 34 13 -10 -38 -21 -24 -51 -70 -67
-101 -24 -46 -27 -60 -17 -70 10 -10 17 -10 32 0 11 6 22 12 24 12 3 0 -6 -27
-20 -60 -24 -61 -31 -110 -15 -110 5 0 8 -39 8 -87 l-2 -88 28 0 c22 1 27 -3
27 -25 0 -48 20 -99 42 -105 13 -5 24 -2 29 6 7 11 9 11 9 1 0 -7 13 -33 30
-56 29 -43 64 -65 113 -70 14 -1 43 -15 65 -29 43 -31 82 -36 82 -11 0 11 9 7
29 -15 31 -33 71 -42 71 -16 0 19 14 19 30 1 6 -8 27 -20 46 -26 30 -10 38 -9
53 4 14 13 24 14 45 6 41 -15 86 -13 86 5 0 12 14 15 64 15 82 0 126 9 126 26
0 10 14 14 45 14 26 0 71 11 107 26 34 14 86 30 116 34 30 5 62 16 71 24 12
11 199 66 225 66 3 0 17 -16 32 -35 23 -31 27 -48 34 -144 5 -62 15 -121 23
-137 18 -35 70 -84 115 -110 18 -10 31 -25 30 -34 -5 -25 -243 -136 -398 -185
-80 -26 -203 -66 -275 -90 -71 -24 -202 -66 -291 -94 -184 -58 -203 -71 -327
-220 -39 -47 -119 -133 -178 -191 l-107 -105 -115 -235 c-64 -129 -126 -269
-138 -310 -21 -70 -28 -80 -100 -150 -89 -87 -89 -87 -139 -236 -27 -80 -57
-144 -103 -216 -103 -166 -101 -159 -103 -283 -1 -131 -17 -188 -78 -294 -52
-89 -62 -128 -43 -155 21 -29 43 -14 77 54 17 33 32 60 35 60 3 0 2 -26 -1
-57 -9 -83 1 -90 148 -95 78 -3 119 -1 121 6 6 16 -29 83 -75 144 -49 66 -84
135 -97 192 -17 73 -12 79 13 18 46 -113 171 -288 204 -288 20 0 13 23 -29 95
-23 39 -61 108 -85 155 -24 47 -58 109 -74 139 -17 30 -30 62 -30 73 0 21 79
183 86 176 2 -3 -5 -31 -16 -63 -24 -69 -26 -129 -6 -177 26 -61 159 -302 185
-335 14 -17 29 -29 33 -27 13 8 9 58 -8 105 -8 24 -26 109 -39 189 -29 171
-34 426 -11 576 13 81 31 142 41 132 2 -1 -1 -46 -7 -98 -12 -116 -3 -449 16
-585 22 -157 42 -189 73 -117 14 31 18 97 24 392 7 344 27 619 47 670 12 29 8
-206 -10 -570 -6 -133 -7 -265 -3 -305 l8 -70 19 80 c73 322 125 515 200 760
70 223 229 624 305 765 120 224 173 307 173 270 0 -6 -40 -89 -88 -183 -48
-95 -110 -226 -137 -292 -27 -66 -70 -174 -97 -240 -65 -160 -124 -349 -214
-685 -21 -75 -84 -393 -80 -397 2 -2 16 31 31 74 51 142 136 358 149 378 7 11
34 70 61 130 87 203 282 583 408 800 84 144 231 358 235 344 2 -5 -23 -49 -56
-97 -95 -141 -281 -479 -431 -787 -124 -253 -202 -438 -276 -655 -45 -133
-105 -287 -149 -384 -14 -32 -26 -64 -26 -70 1 -16 85 146 121 234 17 41 48
106 69 145 20 38 72 138 115 220 79 151 106 196 243 405 214 326 678 919 846
1079 52 50 44 23 -12 -41 -88 -101 -337 -411 -459 -573 -238 -316 -451 -643
-562 -862 -45 -87 -109 -212 -144 -278 -80 -153 -204 -431 -211 -476 -6 -32
-4 -35 39 -56 36 -19 61 -23 134 -23 79 0 93 3 115 23 14 12 66 103 114 202
102 206 173 334 369 665 231 389 297 492 567 883 72 104 486 570 450 507 -31
-56 -82 -116 -206 -247 -115 -119 -160 -175 -229 -283 -160 -250 -276 -435
-310 -492 -19 -31 -77 -128 -130 -215 -153 -251 -358 -612 -440 -774 -45 -91
-99 -223 -99 -244 0 -20 46 -30 76 -17 17 9 31 9 51 1 32 -13 460 -22 600 -13
91 6 92 7 102 36 6 18 11 155 12 341 2 624 36 868 147 1038 27 41 72 121 101
179 29 58 65 125 79 150 28 48 211 327 311 473 33 49 72 112 85 139 19 37 27
46 32 35 8 -22 -29 -85 -221 -382 -89 -137 -190 -304 -225 -370 -35 -66 -84
-151 -110 -190 -80 -121 -120 -244 -121 -374 -1 -85 20 -136 84 -206 89 -100
192 -135 402 -140 211 -5 442 32 740 120 363 107 636 224 872 372 95 59 211
118 219 111 6 -6 -215 -145 -373 -234 -348 -196 -807 -343 -1218 -389 -382
-43 -562 4 -697 183 -43 56 -47 60 -54 39 -10 -32 -20 -536 -14 -717 5 -120
10 -162 23 -187 l18 -33 463 0 464 0 83 74 c46 40 199 185 339 321 334 325
745 694 1053 945 192 156 192 156 182 140 -24 -41 -106 -126 -188 -197 -303
-257 -785 -695 -1085 -985 -222 -214 -270 -268 -256 -289 5 -9 89 -11 378 -6
l370 7 52 34 c28 19 118 88 200 153 445 355 859 612 1256 782 117 50 286 111
307 111 34 0 0 -26 -81 -63 -354 -158 -789 -400 -1063 -592 -232 -163 -507
-380 -519 -410 -7 -19 11 -22 151 -29 105 -5 114 -4 160 20 46 25 207 124 393
242 108 68 545 284 710 350 183 73 302 109 494 147 275 55 458 78 561 72 73
-4 286 -43 344 -63 10 -3 12 11 9 69 -3 69 -7 80 -60 168 -58 98 -72 133 -82
209 -3 25 -13 83 -21 130 -8 47 -17 102 -20 122 -4 25 -22 56 -55 95 -67 79
-93 129 -129 255 -40 140 -108 281 -166 346 -28 31 -53 72 -65 108 -16 45 -36
74 -95 135 -41 42 -75 85 -75 94 0 16 -2 17 -17 3 -10 -8 -56 -35 -102 -59
-177 -91 -431 -269 -1159 -812 -102 -76 -204 -150 -226 -163 -37 -22 -34 -18
24 37 36 34 99 87 140 117 41 31 158 120 260 199 453 348 745 550 945 654 66
34 121 65 123 70 2 5 -6 21 -17 35 -12 15 -21 33 -21 40 0 8 -7 14 -15 14 -18
0 -206 -98 -295 -154 -118 -74 -456 -321 -670 -491 -420 -332 -653 -497 -975
-687 -236 -140 -556 -273 -876 -362 -61 -17 -336 -71 -409 -80 -254 -32 -422
5 -525 115 -76 81 -94 161 -70 302 33 192 58 222 30 37 -19 -129 -19 -163 0
-227 46 -156 238 -233 513 -205 216 22 534 98 752 179 143 53 396 178 586 288
235 137 445 280 754 515 548 415 619 468 785 578 174 116 349 208 535 282 58
23 111 47 119 53 8 7 23 31 33 55 20 45 38 48 38 5 0 -39 -55 -83 -166 -131
-138 -59 -131 -51 -93 -106 23 -32 38 -45 49 -40 122 48 391 106 409 88 11
-11 -30 -32 -77 -39 -79 -11 -214 -47 -269 -71 -63 -27 -63 -37 13 -126 32
-37 63 -87 75 -120 12 -32 43 -82 71 -115 63 -72 128 -206 168 -342 37 -123
58 -167 115 -241 23 -30 47 -64 53 -75 15 -29 62 -258 62 -303 0 -60 17 -105
72 -189 63 -95 77 -132 78 -203 0 -30 4 -60 8 -66 4 -6 52 -26 106 -44 115
-38 284 -110 324 -138 15 -11 54 -33 87 -50 115 -58 295 -195 531 -406 117
-104 139 -117 192 -112 59 5 95 39 86 81 -11 55 -103 351 -154 496 -27 78 -48
144 -46 146 9 9 121 -266 206 -502 74 -208 75 -210 98 -213 34 -5 37 21 12
111 -171 630 -495 1200 -945 1665 -126 130 -193 193 -545 511 -170 153 -176
160 -200 240 -22 74 -45 101 -87 101 -13 0 -23 4 -23 9 0 5 -11 23 -24 38 -14
16 -30 52 -37 79 -17 71 -41 106 -106 151 -71 50 -189 88 -332 107 l-104 14
-74 74 c-247 243 -377 448 -479 753 -165 497 -206 930 -138 1465 29 234 64
371 224 890 111 358 142 485 175 700 13 85 13 367 0 460 -14 100 -68 324 -100
420 -136 404 -430 855 -734 1127 -488 436 -976 606 -1626 566z m2315 -2014 c0
-114 -67 -660 -85 -689 -3 -4 -7 -32 -9 -61 -3 -30 -12 -99 -20 -154 -8 -55
-24 -167 -35 -250 -13 -92 -31 -175 -46 -215 -14 -36 -24 -54 -21 -40 12 65
40 260 70 490 3 19 10 70 15 112 6 43 11 104 12 135 1 49 28 324 44 443 2 19
11 85 19 145 8 61 18 142 22 180 l7 70 13 -50 c8 -27 14 -80 14 -116z m44
-314 c-8 -186 -38 -397 -74 -507 -17 -54 -33 -98 -37 -98 -3 0 -2 11 1 24 3
14 13 80 21 148 65 534 80 641 87 597 3 -24 4 -98 2 -164z m-180 -354 c-4 -17
-9 -30 -11 -27 -3 2 -2 19 2 36 4 17 9 30 11 27 2 -2 1 -18 -2 -36z m-2154
-1986 c0 -5 -5 -3 -10 5 -5 8 -10 20 -10 25 0 6 5 3 10 -5 5 -8 10 -19 10 -25z
m38 -309 c13 -23 15 -30 5 -17 -10 13 -28 43 -41 65 -13 23 -15 30 -5 17 10
-13 28 -43 41 -65z m-2330 -117 c13 -32 8 -39 -20 -31 -19 5 -20 10 -14 71 3
36 7 82 7 101 1 19 5 1 9 -40 4 -41 12 -87 18 -101z m2412 -11 c26 -47 19 -51
-8 -5 -11 19 -27 47 -37 63 l-17 29 20 -25 c12 -14 31 -42 42 -62z m-2333 -10
c-2 -13 -4 -5 -4 17 -1 22 1 32 4 23 2 -10 2 -28 0 -40z m2367 -54 c3 -8 2
-12 -4 -9 -6 3 -10 10 -10 16 0 14 7 11 14 -7z m-1043 -231 c13 -16 12 -17 -3
-4 -10 7 -18 15 -18 17 0 8 8 3 21 -13z m-511 -63 c6 -11 8 -20 6 -20 -3 0
-10 9 -16 20 -6 11 -8 20 -6 20 3 0 10 -9 16 -20z m60 -86 c18 -26 28 -44 22
-40 -6 4 -26 28 -43 53 -42 60 -24 49 21 -13z m135 -186 c27 -35 67 -83 89
-109 23 -25 14 -18 -19 16 -54 55 -133 155 -122 155 2 0 26 -28 52 -62z
m-1128 20 c-3 -8 -6 -5 -6 6 -1 11 2 17 5 13 3 -3 4 -12 1 -19z m1758 -38 c10
-11 16 -20 13 -20 -3 0 -13 9 -23 20 -10 11 -16 20 -13 20 3 0 13 -9 23 -20z
m-1798 -122 c-2 -13 -4 -5 -4 17 -1 22 1 32 4 23 2 -10 2 -28 0 -40z m1004
-65 c13 -16 12 -17 -3 -4 -17 13 -22 21 -14 21 2 0 10 -8 17 -17z m340 0 c13
-16 12 -17 -3 -4 -17 13 -22 21 -14 21 2 0 10 -8 17 -17z m-191 -48 c13 -14
21 -25 18 -25 -2 0 -15 11 -28 25 -13 14 -21 25 -18 25 2 0 15 -11 28 -25z
m241 -12 c13 -16 12 -17 -3 -4 -17 13 -22 21 -14 21 2 0 10 -8 17 -17z m-161
-79 c30 -31 50 -55 45 -53 -11 4 -111 109 -104 109 3 0 29 -25 59 -56z m-30
-91 c0 -14 -24 5 -55 45 l-38 47 46 -45 c26 -24 47 -45 47 -47z m-846 -89 c3
-8 2 -12 -4 -9 -6 3 -10 10 -10 16 0 14 7 11 14 -7z m5000 -314 c27 -10 34
-41 16 -70 -8 -12 -13 -11 -40 8 -16 12 -46 34 -66 47 l-37 25 51 0 c28 0 62
-4 76 -10z m-3428 -698 l-29 -27 23 32 c13 18 26 30 29 28 3 -3 -8 -18 -23
-33z m-756 -264 c-28 -35 -89 -118 -137 -186 -47 -68 -103 -142 -123 -165 -20
-23 -76 -93 -124 -154 -48 -62 -89 -113 -92 -113 -9 0 113 171 174 245 32 39
94 117 137 175 84 112 204 260 211 260 3 0 -18 -28 -46 -62z m-984 -96 c-42
-83 -124 -344 -172 -547 -24 -104 -49 -194 -56 -200 -8 -7 -9 0 -4 25 4 19 18
98 32 175 40 221 126 483 186 566 39 54 46 44 14 -19z"/>
<path d="M5201 9574 c-8 -16 -43 -108 -78 -204 -90 -244 -110 -299 -154 -426
-21 -61 -62 -165 -92 -230 -30 -66 -74 -163 -96 -217 -23 -55 -114 -244 -202
-420 -143 -288 -155 -317 -118 -277 43 48 270 490 363 710 27 63 75 174 107
246 58 130 189 496 255 713 34 111 41 161 15 105z"/>
<path d="M5081 9525 c-127 -306 -252 -632 -249 -653 l3 -27 17 30 c57 106 250
620 245 655 l-3 25 -13 -30z"/>
<path d="M5266 9424 c-26 -70 -81 -224 -121 -343 -87 -258 -191 -529 -283
-735 -61 -136 -140 -283 -284 -524 -27 -46 -47 -86 -44 -89 30 -30 257 353
382 642 111 261 212 539 360 1000 60 185 57 175 47 175 -4 0 -30 -57 -57 -126z"/>
<path d="M4941 9469 c0 -9 -28 -76 -62 -150 -33 -74 -96 -219 -139 -324 -115
-280 -213 -494 -381 -829 -183 -366 -192 -428 -17 -111 97 176 398 818 398
850 0 8 86 214 140 336 47 104 73 191 67 221 -2 13 -5 16 -6 7z"/>
<path d="M5837 9321 c-4 -17 -3 -21 5 -13 5 5 8 16 6 23 -3 8 -7 3 -11 -10z"/>
<path d="M4753 9285 c-6 -11 -35 -74 -63 -140 -28 -66 -111 -259 -185 -430
-144 -334 -190 -433 -266 -565 -55 -96 -123 -250 -110 -250 11 0 52 62 90 138
17 34 46 86 65 115 36 56 75 139 216 462 113 258 182 425 219 531 16 45 34 91
41 103 6 12 10 30 8 39 -3 15 -5 14 -15 -3z"/>
<path d="M4636 9248 c-9 -14 -39 -77 -65 -139 -27 -63 -104 -226 -172 -364
-68 -137 -155 -313 -192 -390 -37 -77 -94 -192 -127 -255 -59 -115 -70 -145
-49 -138 22 7 164 274 262 493 18 39 50 104 72 145 78 146 223 462 284 617 18
44 9 65 -13 31z"/>
<path d="M4464 9114 c-36 -76 -78 -164 -94 -194 -16 -31 -44 -91 -63 -135
-123 -284 -199 -452 -278 -608 -50 -99 -88 -184 -86 -190 2 -7 15 6 29 29 37
57 156 290 211 409 25 55 100 217 167 360 163 348 204 445 191 458 -7 7 -31
-32 -77 -129z"/>
<path d="M3965 9116 c-103 -52 -245 -138 -245 -148 0 -17 36 -6 84 26 29 19
94 57 146 86 154 83 166 113 15 36z"/>
<path d="M5500 9083 c-15 -69 -66 -249 -108 -388 -17 -55 -52 -178 -77 -273
-44 -168 -77 -275 -128 -417 -38 -105 -87 -262 -87 -277 1 -24 29 39 90 203
33 90 65 174 70 186 12 30 96 305 136 448 18 66 49 174 69 240 19 66 44 161
54 210 11 50 22 98 26 108 5 13 2 17 -12 17 -16 0 -22 -12 -33 -57z"/>
<path d="M4095 9121 c-6 -5 -41 -26 -80 -47 -93 -50 -199 -122 -255 -172 -40
-37 -43 -41 -22 -42 13 0 34 11 48 25 14 14 37 33 52 42 15 10 43 30 63 46 20
16 76 52 125 81 48 29 90 58 92 64 4 14 -10 16 -23 3z"/>
<path d="M4165 9083 c-84 -44 -339 -202 -355 -220 -3 -3 10 -3 28 0 18 4 98
47 178 97 79 50 160 98 179 107 19 9 35 20 35 25 0 13 -32 9 -65 -9z"/>
<path d="M4374 9073 c-11 -15 -66 -120 -122 -233 -56 -113 -128 -248 -160
-300 -77 -125 -242 -416 -242 -426 0 -5 -7 -22 -15 -38 -18 -34 -11 -48 10
-20 36 46 168 272 249 424 48 91 97 181 108 200 10 19 46 91 79 160 33 69 74
151 90 183 34 63 35 94 3 50z"/>
<path d="M5616 9043 c-8 -27 -38 -136 -66 -243 -87 -329 -106 -392 -240 -810
-35 -107 -65 -208 -67 -225 -4 -29 -3 -28 18 10 68 123 223 612 330 1040 33
132 62 248 65 258 3 11 0 17 -10 17 -8 0 -20 -19 -30 -47z"/>
<path d="M5938 9075 c-18 -54 -33 -121 -53 -230 -69 -365 -136 -653 -239
-1028 -43 -154 -75 -281 -72 -284 3 -3 8 3 12 13 4 10 15 39 26 64 18 43 64
197 147 500 22 80 56 224 76 320 20 96 45 211 55 255 37 163 76 480 48 390z"/>
<path d="M4135 8984 c-28 -15 -61 -35 -75 -44 -53 -37 -149 -80 -213 -95 -91
-21 -228 -117 -203 -142 2 -2 25 12 52 32 67 52 134 83 208 99 36 7 84 25 108
39 35 21 172 118 187 133 12 12 -20 1 -64 -22z"/>
<path d="M5705 8968 c-3 -7 -36 -137 -74 -288 -38 -151 -83 -318 -99 -370 -93
-294 -186 -630 -177 -638 22 -23 240 682 329 1065 24 103 47 200 51 216 6 21
4 27 -9 27 -9 0 -19 -6 -21 -12z"/>
<path d="M5790 8848 c-13 -40 -36 -125 -51 -188 -52 -220 -138 -546 -182 -690
-40 -128 -102 -337 -114 -380 -2 -8 9 10 26 41 40 76 159 434 215 649 43 166
126 522 140 603 11 62 -9 42 -34 -35z"/>
<path d="M4066 8871 c-8 -13 -96 -52 -125 -56 -77 -10 -158 -51 -252 -127 -30
-24 -84 -64 -121 -88 -65 -42 -82 -60 -56 -60 21 0 137 70 190 116 57 49 217
134 252 134 11 0 35 9 51 20 36 24 64 27 46 6 -6 -7 -55 -33 -109 -56 -53 -24
-101 -49 -107 -57 -5 -7 -33 -28 -62 -46 -44 -27 -107 -74 -223 -166 -51 -40
-11 -29 61 17 41 26 86 53 100 61 15 7 49 32 75 56 27 23 65 50 84 59 103 52
186 110 203 142 9 19 17 39 17 44 0 12 -17 13 -24 1z"/>
<path d="M4808 8823 c-10 -11 -18 -22 -18 -26 0 -23 -194 -435 -309 -658 -125
-240 -161 -319 -147 -319 24 0 295 509 371 695 16 39 50 121 77 184 50 117 59
161 26 124z"/>
<path d="M4074 8789 c-8 -14 -70 -63 -182 -144 -23 -16 -70 -61 -104 -99 -35
-37 -121 -121 -191 -184 -71 -64 -124 -118 -118 -120 16 -5 100 65 256 212 72
68 151 141 177 162 95 78 180 163 176 175 -3 10 -7 10 -14 -2z"/>
<path d="M3975 8612 c-44 -38 -108 -96 -143 -130 -35 -34 -130 -123 -213 -198
-82 -76 -147 -139 -145 -142 12 -11 52 17 154 110 61 57 179 164 261 239 81
75 160 144 175 154 30 20 34 35 9 35 -10 0 -54 -31 -98 -68z"/>
<path d="M3695 8523 c-27 -20 -77 -61 -110 -93 -33 -31 -69 -61 -80 -67 -11
-7 -17 -15 -13 -18 11 -11 97 53 183 137 44 43 78 77 75 77 -3 0 -27 -16 -55
-36z"/>
<path d="M4004 8528 c-36 -27 -95 -80 -254 -228 -69 -64 -167 -154 -219 -200
-52 -46 -88 -86 -82 -88 7 -2 29 11 49 30 21 19 75 65 122 102 99 78 408 363
421 389 13 23 -2 22 -37 -5z"/>
<path d="M6216 8388 c-9 -51 -32 -160 -50 -243 -19 -82 -48 -215 -66 -295 -18
-80 -40 -176 -51 -215 -10 -38 -30 -122 -44 -185 -14 -63 -33 -143 -42 -178
-12 -46 -13 -66 -5 -74 8 -8 13 -8 16 3 18 58 79 295 100 389 14 63 50 222 81
354 58 251 80 363 91 470 10 100 -11 82 -30 -26z"/>
<path d="M3856 8257 c-41 -30 -236 -214 -236 -223 0 -7 72 48 134 101 156 132
212 200 102 122z"/>
<path d="M3620 7897 c0 -20 30 -44 213 -168 242 -164 305 -206 428 -284 61
-38 167 -107 235 -152 132 -88 183 -117 191 -110 8 9 -146 119 -432 309 -154
103 -302 202 -330 221 -112 77 -295 197 -300 197 -3 0 -5 -6 -5 -13z"/>
<path d="M3800 7879 c60 -53 475 -320 650 -419 52 -30 132 -78 176 -107 89
-57 225 -123 204 -99 -6 9 -42 32 -78 52 -37 20 -90 54 -119 75 -29 21 -112
74 -185 118 -73 43 -216 131 -318 196 -250 160 -341 215 -354 215 -6 -1 5 -15
24 -31z"/>
<path d="M3981 7857 c30 -19 106 -65 169 -104 63 -38 158 -97 210 -130 52 -33
131 -79 175 -103 44 -24 103 -58 130 -75 74 -48 305 -160 273 -133 -28 24
-331 201 -544 318 -67 37 -135 76 -150 87 -68 48 -285 173 -301 173 -9 0 8
-15 38 -33z"/>
<path d="M6173 7835 c-7 -22 -42 -193 -79 -380 -37 -187 -69 -346 -71 -352 -3
-7 0 -13 6 -13 13 0 34 71 65 225 14 67 36 166 50 220 30 122 49 246 44 300
l-3 40 -12 -40z"/>
<path d="M3560 7821 c0 -6 30 -31 68 -58 37 -26 148 -108 248 -183 234 -174
330 -242 489 -346 100 -64 149 -104 212 -171 44 -49 84 -86 87 -82 3 3 -17 32
-44 66 -55 68 -185 176 -358 296 -64 45 -142 100 -172 123 -306 226 -387 285
-445 322 -69 43 -85 49 -85 33z"/>
<path d="M3490 7761 c0 -6 42 -41 93 -79 343 -257 440 -335 577 -466 183 -175
237 -234 328 -355 81 -108 114 -134 76 -59 -74 148 -422 504 -666 683 -57 42
-137 101 -178 133 -130 101 -230 163 -230 143z"/>
<path d="M4855 7714 c77 -59 400 -240 376 -210 -15 18 -122 83 -289 175 -92
51 -125 64 -87 35z"/>
<path d="M4600 7622 c0 -18 474 -281 486 -269 10 10 -54 48 -388 226 -54 29
-98 48 -98 43z"/>
<path d="M5351 7405 c-111 -29 -180 -68 -269 -150 -63 -58 -133 -150 -146
-191 -3 -12 0 -28 9 -40 15 -18 17 -17 52 26 87 106 162 169 256 214 107 51
176 69 267 70 111 2 221 -67 300 -187 114 -175 148 -417 90 -641 -28 -110
-105 -265 -181 -366 -99 -132 -299 -332 -368 -369 -129 -68 -264 -76 -381 -20
-34 16 -66 29 -71 29 -5 0 -9 -15 -9 -33 0 -42 56 -100 119 -122 58 -20 196
-20 258 1 148 50 205 93 385 289 155 171 204 237 263 360 55 116 73 175 90
305 31 224 16 358 -56 504 -143 287 -341 392 -608 321z"/>
<path d="M6681 7338 c-12 -37 -30 -133 -66 -353 -22 -136 -100 -508 -109 -524
-6 -9 -100 -443 -126 -579 -23 -121 -37 -261 -26 -250 15 13 67 244 106 468 6
36 44 216 85 400 73 334 105 510 105 575 0 19 5 35 11 35 5 0 8 4 4 10 -3 5 3
62 14 126 21 120 22 152 2 92z"/>
<path d="M4074 7193 c41 -49 107 -119 146 -156 78 -76 152 -169 259 -329 40
-60 77 -108 83 -108 18 0 -78 164 -164 280 -55 76 -135 164 -232 258 -82 78
-152 142 -158 142 -5 0 24 -39 66 -87z"/>
<path d="M5365 7177 c-102 -34 -182 -100 -225 -186 -27 -55 -37 -173 -21 -252
20 -98 82 -189 128 -189 29 0 29 14 -2 85 -14 32 -24 59 -23 61 8 7 196 -70
231 -95 26 -18 49 -50 77 -105 46 -90 48 -105 19 -155 -32 -58 -102 -99 -199
-118 -74 -15 -87 -21 -134 -63 -122 -112 -210 -108 -130 6 78 109 85 125 81
177 -3 29 -17 73 -37 110 -19 34 -43 81 -54 105 -13 26 -30 45 -44 49 -29 7
-33 3 -39 -47 -5 -37 1 -55 42 -136 l49 -94 -32 -43 c-111 -150 -118 -213 -29
-267 63 -39 146 -18 239 59 35 29 62 41 110 51 80 15 129 40 189 97 56 52 89
114 89 165 0 61 -38 163 -83 225 -49 66 -98 96 -222 137 -44 14 -95 35 -112
46 -40 24 -42 48 -10 135 16 44 30 63 52 75 16 8 36 21 43 28 34 31 101 55
165 60 61 4 73 2 132 -27 98 -49 129 -83 145 -161 7 -36 16 -123 19 -195 5
-108 9 -130 22 -133 31 -6 44 54 44 203 0 133 -1 143 -28 197 -36 73 -121 151
-196 179 -70 26 -201 34 -256 16z"/>
<path d="M4030 7149 c0 -19 38 -72 115 -159 194 -221 267 -364 450 -885 115
-329 129 -357 168 -342 15 6 15 11 -4 54 -11 26 -54 138 -94 248 -149 407
-195 513 -296 687 -76 130 -339 438 -339 397z"/>
<path d="M4464 7019 c60 -57 112 -105 117 -107 49 -19 -97 132 -172 178 -48
29 -42 22 55 -71z"/>
<path d="M5701 6334 c-62 -128 -70 -163 -26 -109 56 69 116 208 97 227 -6 6
-30 -33 -71 -118z"/>
<path d="M3846 5703 c-9 -10 79 -167 139 -246 128 -171 339 -436 363 -454 43
-34 43 6 0 75 -61 98 -462 618 -483 626 -7 2 -16 2 -19 -1z"/>
<path d="M1816 5619 c-24 -4 -48 -16 -59 -30 l-19 -24 28 -12 c16 -7 52 -12
79 -13 46 0 107 -13 237 -51 56 -15 67 -9 44 26 -45 68 -206 122 -310 104z"/>
<path d="M2275 5560 c-16 -39 -26 -73 -22 -76 9 -10 53 25 65 52 16 33 15 69
-1 83 -11 9 -20 -3 -42 -59z"/>
<path d="M3800 5593 c0 -35 124 -222 217 -329 53 -60 116 -136 141 -169 82
-108 152 -172 152 -137 0 20 -77 132 -167 243 -54 66 -107 133 -118 148 -58
79 -209 261 -216 261 -5 0 -9 -8 -9 -17z"/>
<path d="M2656 5038 c11 -90 53 -236 91 -321 40 -90 62 -122 75 -109 14 14
-10 106 -62 247 -26 72 -54 150 -61 175 -12 43 -24 60 -42 60 -4 0 -5 -24 -1
-52z"/>
<path d="M5241 4613 c-5 -10 -17 -56 -26 -103 -15 -76 -39 -180 -120 -515 -13
-55 -38 -158 -55 -230 -17 -71 -46 -186 -65 -255 -63 -229 -146 -581 -142
-603 3 -17 9 -10 29 33 14 30 37 91 51 135 35 110 159 563 196 715 123 513
170 737 171 818 0 26 -25 30 -39 5z"/>
<path d="M4625 2603 c-16 -94 -79 -295 -134 -428 -64 -152 -121 -241 -218
-341 l-88 -89 32 -3 c58 -6 143 52 221 151 83 107 129 201 211 441 52 151 55
215 12 270 l-30 37 -6 -38z"/>
<path d="M5588 2543 c-82 -114 -178 -266 -178 -280 0 -29 21 -8 82 85 85 126
167 272 154 272 -1 0 -28 -35 -58 -77z"/>
<path d="M4151 2304 c18 -92 26 -108 52 -98 29 11 21 66 -20 128 -21 31 -40
56 -43 56 -4 0 1 -39 11 -86z"/>
<path d="M7750 1337 c-3 -3 -45 -10 -95 -16 -165 -20 -179 -22 -260 -37 -132
-25 -374 -93 -475 -134 -265 -106 -729 -335 -800 -394 -8 -7 -55 -37 -105 -66
-49 -30 -109 -70 -133 -89 l-43 -36 31 -6 c60 -13 183 11 345 66 182 61 436
138 441 133 2 -2 -41 -19 -94 -38 -53 -18 -149 -53 -212 -78 -63 -24 -133 -50
-155 -57 l-40 -12 74 -13 c44 -7 101 -10 142 -6 74 8 252 44 367 75 40 11 125
30 190 41 64 12 178 37 252 55 173 43 405 95 427 95 36 0 -1 -12 -148 -50 -85
-22 -213 -55 -284 -74 -72 -19 -178 -44 -235 -55 -58 -12 -141 -34 -185 -49
l-80 -27 70 -3 c126 -5 282 14 410 51 150 44 236 62 395 82 126 16 294 42 340
51 14 3 22 2 18 -1 -10 -10 -171 -42 -328 -65 -152 -23 -312 -56 -445 -93
l-90 -25 100 -1 c118 -1 282 13 415 35 52 9 111 18 130 20 118 14 195 26 217
35 13 5 30 9 36 8 7 0 3 -4 -7 -8 -40 -16 255 -3 389 17 153 22 395 35 395 21
0 -5 -30 -9 -67 -9 -86 -1 -160 -7 -293 -25 -58 -8 -136 -17 -175 -19 -200
-16 -318 -29 -498 -55 -110 -16 -202 -33 -205 -37 -4 -4 108 -4 248 0 140 3
545 6 900 7 355 1 660 3 678 6 21 4 32 11 32 22 0 24 -199 215 -315 302 -106
79 -294 198 -383 243 -157 79 -401 156 -607 192 -95 16 -277 30 -285 21z m590
-594 c-151 -24 -279 -47 -299 -55 -13 -4 -26 -7 -28 -4 -7 6 121 44 187 55 30
5 80 9 110 8 30 0 44 -2 30 -4z"/>
</g>
</svg>
