<svg width="58" height="67" viewBox="0 0 58 67" fill="#1b225d" xmlns="http://www.w3.org/2000/svg">
<path fill-rule="evenodd" clip-rule="evenodd" d="M6.32036 14.4074L6.30871 14.5374C6.11524 16.7043 5.88368 19.6388 5.72956 22.7212C5.57497 25.813 5.50071 29.0083 5.61333 31.7111C5.66967 33.0634 5.77126 34.2508 5.92244 35.2183C6.08025 36.2284 6.26688 36.8247 6.40624 37.1034C6.90193 38.0948 8.3391 40.157 10.4505 42.8513C12.5079 45.4769 15.0667 48.5294 17.6593 51.4306C20.2579 54.3385 22.8544 57.0541 24.9903 59.0245C26.0639 60.0149 26.9713 60.7707 27.6728 61.263C27.9953 61.4894 28.4172 61.4992 28.7506 61.2891L28.8209 61.2445C29.568 60.7664 30.5358 60.0361 31.6778 59.0832C33.9513 57.1861 36.7312 54.5618 39.5081 51.7232C42.2815 48.8882 45.0125 45.8797 47.1919 43.2279C49.4438 40.4878 50.898 38.3746 51.3625 37.2599C51.6313 36.6147 51.8525 35.5837 52.0101 34.2199L41.3813 34.22C40.0006 34.2201 38.8813 33.1008 38.8812 31.7201C38.8812 30.3394 40.0005 29.2201 41.3812 29.22L54.9545 29.2199V29.2214H55.0027C56.2558 29.2214 57.2741 30.2436 57.2228 31.4957C57.1054 34.3587 56.7913 37.2308 55.9779 39.183C55.1923 41.0683 53.2715 43.7051 51.0547 46.4025C48.7654 49.1882 45.9339 52.3047 43.0823 55.2197C40.2341 58.1311 37.3265 60.8817 34.8813 62.9222C33.6639 63.938 32.5145 64.8171 31.5156 65.4562C31.0175 65.7748 30.509 66.0649 30.0141 66.283C29.5677 66.4798 28.9072 66.7214 28.1702 66.7214C27.3983 66.7214 26.7218 66.4541 26.2742 66.2404C25.7792 66.0041 25.2803 65.6924 24.8004 65.3556C23.8378 64.68 22.7452 63.756 21.6 62.6996C19.2984 60.5762 16.5825 57.7293 13.931 54.7623C11.2736 51.7885 8.64492 48.6535 6.51489 45.9353C4.43876 43.2859 2.68843 40.8481 1.93412 39.3395C1.44849 38.3683 1.16636 37.1677 0.982377 35.9902C0.791755 34.7702 0.678504 33.3795 0.61766 31.9193C0.495901 28.997 0.577887 25.6298 0.7358 22.4715C0.894177 19.304 1.13137 16.3009 1.32852 14.0927C1.4272 12.9876 1.51608 12.0789 1.58044 11.4453C1.61262 11.1284 1.63869 10.8801 1.6568 10.7102L1.67779 10.5153L1.68338 10.4642L1.68487 10.4506L1.68528 10.4469L1.68541 10.4458C1.68544 10.4455 1.68547 10.4452 4.16462 10.7207L2.44719 10.5298C2.0265 10.4831 1.72336 10.1042 1.77011 9.68349C1.79394 9.469 1.90709 9.2745 2.08177 9.14777L2.70212 8.69772C16.1735 -1.07556 29.3479 -1.09333 39.0929 1.35946C43.9382 2.57903 47.9335 4.40496 50.7193 5.92525C52.1148 6.6868 53.2144 7.3758 53.9739 7.88104C54.3538 8.1338 54.6493 8.34101 54.8547 8.48886C54.9575 8.5628 55.0378 8.62194 55.0949 8.66457L55.1457 8.70265L55.1633 8.71592L55.1843 8.73192L55.1915 8.73743L55.1942 8.73955C55.1954 8.74044 55.1964 8.74125 53.6702 10.7213C56.1534 10.4325 56.1535 10.4328 56.1535 10.4331L56.1536 10.4342L56.1541 10.4379L56.1556 10.451L56.1612 10.5002L56.1823 10.6875C56.2005 10.8507 56.2266 11.0891 56.2588 11.3937C56.3233 12.0027 56.4123 12.877 56.5111 13.9439C56.5982 14.8843 56.693 15.9763 56.7855 17.1698C56.897 18.6103 55.7513 19.8307 54.3066 19.8307C52.9884 19.8307 51.8977 18.8077 51.7955 17.4934C51.7069 16.3539 51.6161 15.3089 51.5324 14.4049C51.4519 13.5354 51.3781 12.7981 51.3196 12.2349C51.3116 12.1573 51.2693 12.0873 51.2044 12.044C50.5517 11.6098 49.5771 10.998 48.3242 10.3142C45.8131 8.94392 42.2146 7.30114 37.8725 6.20823C29.923 4.20737 19.4743 4.03449 8.47446 10.8401C7.22769 11.6115 6.45155 12.9472 6.32036 14.4074ZM53.6702 10.7213L54.7436 9.32867C54.9937 9.00425 55.4594 8.94398 55.7839 9.19405C55.9423 9.31618 56.0447 9.49712 56.0678 9.69581C56.1151 10.1027 55.8236 10.4709 55.4167 10.5182L53.6702 10.7213ZM27.8877 61.7516C27.879 61.7539 27.8745 61.7554 27.8744 61.7556C27.8744 61.7557 27.8754 61.7555 27.8774 61.7549C27.8796 61.7542 27.883 61.7532 27.8877 61.7516ZM28.5066 61.7628C28.5189 61.7665 28.5254 61.769 28.5255 61.7694C28.5257 61.7697 28.5195 61.7678 28.5066 61.7628Z" fill="#1b225d"/>
<path d="M49.5294 31.6931L29.4698 31.6931" stroke="#1b225d" stroke-width="5" stroke-linecap="round"/>
</svg>
