<svg width="171" height="104" viewBox="0 0 171 104" fill="none" xmlns="http://www.w3.org/2000/svg">
<path d="M14 103.333C21.3638 103.333 27.3333 97.3637 27.3333 89.9999C27.3333 82.6361 21.3638 76.6666 14 76.6666C6.6362 76.6666 0.666667 82.6361 0.666667 89.9999C0.666667 97.3637 6.6362 103.333 14 103.333ZM157.5 27.3333C164.864 27.3333 170.833 21.3638 170.833 14C170.833 6.63619 164.864 0.666653 157.5 0.666653C150.136 0.666653 144.167 6.63619 144.167 14C144.167 21.3638 150.136 27.3333 157.5 27.3333ZM13.5242 92.4542C31.8544 96.008 62.8743 97.1568 92.0979 87.1725C121.441 77.1472 149.036 55.8505 159.917 14.6382L155.083 13.3618C144.71 52.6495 118.568 72.8451 90.4813 82.441C62.2752 92.0778 32.1725 90.9766 14.4758 87.5456L13.5242 92.4542Z" fill="white"/>
</svg>
