<svg width="130" height="99" viewBox="0 0 130 99" fill="none" xmlns="http://www.w3.org/2000/svg">
<path d="M129.333 85C129.333 77.6362 123.364 71.6667 116 71.6667C108.636 71.6667 102.667 77.6362 102.667 85C102.667 92.3638 108.636 98.3333 116 98.3333C123.364 98.3333 129.333 92.3638 129.333 85ZM27.3333 14.3132C27.3333 6.94944 21.3638 0.979906 14 0.979905C6.6362 0.979905 0.666666 6.94944 0.666665 14.3132C0.666665 21.677 6.6362 27.6466 14 27.6466C21.3638 27.6466 27.3333 21.677 27.3333 14.3132ZM118.5 85C118.5 54.7547 105.825 33.7558 86.1243 21.7136C66.5536 9.75084 40.3766 6.81862 13.5388 11.8561L14.4612 16.7703C40.4779 11.8869 65.301 14.8453 83.5166 25.9797C101.602 37.0348 113.5 56.3397 113.5 85L118.5 85Z" fill="white"/>
</svg>
